<?xml version="1.0" standalone="no"?>
<!DOCTYPE svg PUBLIC "-//W3C//DTD SVG 1.1//EN" "http://www.w3.org/Graphics/SVG/1.1/DTD/svg11.dtd" >
<svg xmlns="http://www.w3.org/2000/svg">
<metadata>Generated by IcoMoon</metadata>
<defs>
<font id="icomoon" horiz-adv-x="1024">
<font-face units-per-em="1024" ascent="960" descent="-64" />
<missing-glyph horiz-adv-x="1024" />
<glyph unicode="&#x20;" horiz-adv-x="512" d="" />
<glyph unicode="&#xe900;" glyph-name="dot-action-add-fill" d="M512 938.667c-282.773 0-512-229.227-512-512s229.227-512 512-512 512 229.227 512 512-229.227 512-512 512zM746.667 384h-192v-191.957h-85.333v191.957h-192v85.333h192v191.957h85.333v-191.957h192v-85.333z" />
<glyph unicode="&#xe901;" glyph-name="dot-action-add-outline" d="M512 938.667c-282.773 0-512-229.227-512-512s229.227-512 512-512 512 229.227 512 512-229.227 512-512 512zM512-0c-235.648 0-426.667 191.019-426.667 426.667s191.019 426.667 426.667 426.667 426.667-191.019 426.667-426.667-191.019-426.667-426.667-426.667zM746.667 469.334h-192v191.957h-85.333v-191.957h-192v-85.333h192v-191.957h85.333v191.957h192z" />
<glyph unicode="&#xe902;" glyph-name="dot-action-add" d="M1024.641 520.395h-418.892v418.806h-186.196v-418.806h-418.913v-186.174h418.913v-418.828h186.196v418.828h418.892z" />
<glyph unicode="&#xe903;" glyph-name="dot-notification-success-fill" d="M512 938.667c-282.773 0-512-229.227-512-512s229.227-512 512-512 512 229.227 512 512-229.227 512-512 512zM653.376 448.918l-203.52-203.52-0.107 0.107-11.328-11.285-0.149 0.128-0.149-0.128-25.387 25.344 0.149 0.171-165.525 165.525 46.827 46.827 144.384-144.427 168 168.021-0.192 0.192 123.221 123.243 46.955-46.976-123.179-123.221z" />
<glyph unicode="&#xe904;" glyph-name="dot-notification-success-outline" d="M729.643 619.136l-123.221-123.243 0.213-0.192-168.043-168.043-144.384 144.427-46.827-46.827 165.504-165.525-0.149-0.171 25.387-25.344 0.149 0.107 0.149-0.107 11.328 11.285 0.107-0.107 326.763 326.763zM512 938.667c-282.773 0-512-229.227-512-512s229.227-512 512-512 512 229.227 512 512-229.227 512-512 512zM512-0c-235.648 0-426.667 191.019-426.667 426.667s191.019 426.667 426.667 426.667 426.667-191.019 426.667-426.667-191.019-426.667-426.667-426.667z" />
<glyph unicode="&#xe905;" glyph-name="dot-notification-success" d="M933.035 799.040l-238.379-238.421 0.363-0.384-325.056-325.077-279.339 279.36-90.581-90.581 320.235-320.235-0.32-0.277 49.131-49.131 0.277 0.299 0.299-0.299 21.888 21.867 0.213-0.171 632.192 632.149z" />
<glyph unicode="&#xe906;" glyph-name="dot-action-down-fill" d="M512 938.667c-282.773 0-512-229.227-512-512 0-282.752 229.227-512 512-512s512 229.248 512 512c0 282.773-229.227 512-512 512zM767.851 531.819l-255.915-255.744-0.149 0.171-0.149-0.171-24.555 24.533 0.149 0.171-231.083 231.211 45.227 45.248 210.709-210.688 210.539 210.517 22.549-22.528 0.085 0.085 22.635-22.613-0.107-0.128 0.064-0.064z" />
<glyph unicode="&#xe907;" glyph-name="dot-action-down-outline" d="M767.851 532.011l-22.592 22.613-0.085-0.085-22.549 22.528-210.539-210.517-210.709 210.688-45.227-45.248 0.064-0.064-0.043-0.043 231.083-231.040-0.149-0.192 24.533-24.576 0.149 0.171 0.149-0.171 10.944 10.965 0.128-0.107 244.736 244.971zM512 938.667c-282.773 0-512-229.227-512-512 0-282.752 229.227-512 512-512s512 229.248 512 512c0 282.773-229.227 512-512 512zM512-0c-235.648 0-426.667 191.019-426.667 426.667s191.019 426.667 426.667 426.667 426.667-191.019 426.667-426.667-191.019-426.667-426.667-426.667z" />
<glyph unicode="&#xe908;" glyph-name="dot-action-down" d="M1023.851 637.419l-45.248 45.248-0.192-0.192-45.035 45.077-421.205-421.227-421.547 421.547-90.475-90.539 0.128-0.107-0.085-0.085 462.293-462.272-0.32-0.277 49.131-49.131 0.277 0.299 0.299-0.299 21.909 21.888 0.171-0.235 489.664 490.091z" />
<glyph unicode="&#xe909;" glyph-name="dot-action-up-fill" d="M512 938.667c-282.773 0-512-229.227-512-512s229.227-512 512-512 512 229.227 512 512-229.227 512-512 512zM771.2 319.979l-45.781-45.845-213.504 213.461-213.312-213.312-22.805 22.805-0.107-0.107-22.912 22.912 0.128 0.107-0.128 0.107 259.307 259.072 0.149-0.149 0.149 0.149 24.896-24.875-0.192-0.149 234.112-234.176z" />
<glyph unicode="&#xe90a;" glyph-name="dot-action-up-outline" d="M252.779 319.936l22.912-22.912 0.107 0.107 22.805-22.848 213.312 213.312 213.504-213.461 45.781 45.845-0.043 0.064 0.043 0.043-234.112 234.112 0.171 0.149-24.896 24.853-0.149-0.128-0.149 0.128-11.093-11.072-0.085 0.107-248-248.192zM512 938.667c-282.773 0-512-229.227-512-512s229.227-512 512-512 512 229.227 512 512-229.227 512-512 512zM512-0c-235.648 0-426.667 191.019-426.667 426.667s191.019 426.667 426.667 426.667 426.667-191.019 426.667-426.667-191.019-426.667-426.667-426.667z" />
<glyph unicode="&#xe90b;" glyph-name="dot-action-up" d="M0.149 215.915l45.248-45.248 0.192 0.192 45.035-45.077 421.205 421.205 421.547-421.525 90.475 90.539-0.149 0.107 0.107 0.085-462.315 462.272 0.341 0.299-49.131 49.109-0.277-0.299-0.299 0.299-21.909-21.888-0.192 0.213-489.664-490.069z" />
<glyph unicode="&#xe90c;" glyph-name="dot-action-right-fill" d="M512 938.667c-282.773 0-512-229.227-512-512s229.227-512 512-512c282.752 0 512 229.227 512 512s-229.248 512-512 512zM662.080 426.304l-24.448-24.469-0.171 0.171-230.443-230.4-45.12 45.077 210.069 210.069-209.899 209.899 22.464 22.443-0.107 0.107 22.549 22.549 0.107-0.107 0.107 0.107 254.891-255.125-0.128-0.149 0.128-0.171z" />
<glyph unicode="&#xe90d;" glyph-name="dot-action-right-outline" d="M406.976 681.728l-22.549-22.549 0.085-0.085-22.443-22.443 209.899-209.899-210.069-210.069 45.12-45.077 0.064 0.064 0.021-0.043 230.357 230.379 0.171-0.171 24.448 24.469-0.128 0.149 0.128 0.149-10.923 10.923 0.128 0.107-244.203 243.989zM512 938.667c-282.773 0-512-229.227-512-512s229.227-512 512-512c282.752 0 512 229.227 512 512s-229.248 512-512 512zM512-0c-235.648 0-426.667 191.040-426.667 426.667 0 235.648 191.019 426.667 426.667 426.667s426.667-191.019 426.667-426.667c0-235.627-191.019-426.667-426.667-426.667z" />
<glyph unicode="&#xe90e;" glyph-name="dot-action-right" d="M301.248 938.518l-45.248-45.248 0.192-0.192-45.077-45.035 421.227-421.205-421.547-421.547 90.539-90.475 0.107 0.149 0.085-0.107 462.272 462.315 0.277-0.341 49.131 49.131-0.299 0.277 0.299 0.299-21.888 21.909 0.235 0.192-490.091 489.664z" />
<glyph unicode="&#xe90f;" glyph-name="dot-action-left-fill" d="M512 938.667c-282.773 0-512-229.227-512-512s229.227-512 512-512 512 229.227 512 512-229.227 512-512 512zM618.219 168.576l-0.043 0.043-0.043-0.043-233.088 233.131-0.171-0.171-24.747 24.768 0.149 0.149-0.149 0.149 11.029 11.051-0.107 0.107 247.211 246.997 22.827-22.805-0.085-0.085 22.699-22.699-212.373-212.395 212.544-212.544-45.653-45.653z" />
<glyph unicode="&#xe910;" glyph-name="dot-action-left-outline" d="M618.24 684.758l22.848-22.827-0.085-0.085 22.699-22.699-212.373-212.395 212.544-212.544-45.653-45.632-0.043 0.043-0.043-0.043-233.088 233.131-0.171-0.171-24.747 24.768 0.149 0.149-0.149 0.149 11.029 11.051-0.107 0.107 247.125 246.891zM512 938.667c-282.773 0-512-229.227-512-512s229.227-512 512-512 512 229.227 512 512-229.227 512-512 512zM512-0c-235.648 0-426.667 191.019-426.667 426.667s191.019 426.667 426.667 426.667 426.667-191.019 426.667-426.667-191.019-426.667-426.667-426.667z" />
<glyph unicode="&#xe911;" glyph-name="dot-action-left" d="M722.752 938.518l45.248-45.248-0.192-0.192 45.077-45.035-421.205-421.205 421.525-421.547-90.539-90.475-0.107 0.149-0.085-0.107-462.272 462.315-0.299-0.341-49.109 49.131 0.299 0.277-0.299 0.299 21.888 21.909-0.213 0.192 490.069 489.664z" />
<glyph unicode="&#xe912;" glyph-name="dot-notification-warning-fill" d="M512 938.667c-282.773 0-512-229.227-512-512s229.227-512 512-512 512 229.227 512 512-229.227 512-512 512zM469.355 661.995h85.269v-320.661h-85.269v320.661zM512 192c-23.552 0-42.667 19.115-42.667 42.667s19.115 42.667 42.667 42.667c23.552 0 42.667-19.115 42.667-42.667s-19.115-42.667-42.667-42.667z" />
<glyph unicode="&#xe913;" glyph-name="dot-notification-warning-outline" d="M512 938.667c-282.773 0-512-229.227-512-512s229.227-512 512-512 512 229.227 512 512-229.227 512-512 512zM512-0c-235.648 0-426.667 191.019-426.667 426.667s191.019 426.667 426.667 426.667 426.667-191.019 426.667-426.667-191.019-426.667-426.667-426.667zM554.667 234.667c0-23.564-19.103-42.667-42.667-42.667s-42.667 19.103-42.667 42.667c0 23.564 19.103 42.667 42.667 42.667s42.667-19.103 42.667-42.667zM469.355 661.995h85.269v-320.661h-85.269v320.661z" />
<glyph unicode="&#xe914;" glyph-name="dot-notification-warning" d="M604.245 10.902c0-50.946-41.3-92.245-92.245-92.245s-92.245 41.3-92.245 92.245c0 50.946 41.3 92.245 92.245 92.245s92.245-41.3 92.245-92.245zM419.819 934.656h184.299v-693.205h-184.299v693.205z" />
<glyph unicode="&#xe915;" glyph-name="dot-notification-question-fill" d="M512 938.667c-282.773 0-512-229.227-512-512s229.227-512 512-512 512 229.227 512 512-229.227 512-512 512zM539.115 189.035c-10.261-10.155-24.555-15.211-42.901-15.211-18.752 0-33.259 4.928-43.52 14.869-10.261 9.963-15.424 23.957-15.424 42.048 0 18.752 5.035 32.917 15.083 42.539 10.048 9.579 24.661 14.379 43.861 14.379 18.539 0 32.875-4.885 43.072-14.699 10.155-9.835 15.232-23.893 15.232-42.219 0-17.621-5.12-31.509-15.403-41.707zM649.621 494.315c-11.157-17.856-32.384-37.952-63.616-60.288-21.44-15.851-35.008-27.904-40.661-36.16-5.717-8.299-8.533-19.115-8.533-32.491v-20.075h-88.725v24.789c0 21.419 4.565 40.085 13.739 55.915 9.152 15.851 25.899 32.704 50.219 50.56 23.445 16.747 38.891 30.357 46.379 40.853s11.2 22.229 11.2 35.157c0 14.507-5.355 25.557-16.064 33.152s-25.664 11.392-44.885 11.392c-33.472 0-71.659-10.944-114.517-32.832l-36.501 73.344c49.771 27.904 102.592 41.856 158.4 41.856 45.973 0 82.56-11.051 109.675-33.152s40.661-51.563 40.661-88.405c-0.021-24.555-5.589-45.76-16.768-63.616z" />
<glyph unicode="&#xe916;" glyph-name="dot-notification-question-outline" d="M496.256 287.659c-19.179 0-33.813-4.8-43.861-14.379-10.048-9.621-15.083-23.787-15.083-42.539 0-18.091 5.141-32.085 15.424-42.048 10.283-9.941 24.768-14.869 43.52-14.869 18.304 0 32.597 5.056 42.859 15.211 10.261 10.197 15.424 24.085 15.424 41.707 0 18.283-5.077 32.384-15.253 42.219-10.155 9.813-24.491 14.699-43.029 14.699zM625.685 646.336c-27.115 22.101-63.68 33.152-109.675 33.152-55.808 0-108.629-13.952-158.4-41.856l36.501-73.344c42.859 21.867 81.045 32.832 114.517 32.832 19.2 0 34.176-3.797 44.885-11.392 10.731-7.573 16.085-18.645 16.085-33.152 0-12.949-3.755-24.661-11.2-35.157-7.488-10.496-22.912-24.107-46.379-40.853-24.341-17.856-41.088-34.709-50.219-50.56-9.173-15.829-13.739-34.496-13.739-55.915v-24.789h88.725v20.075c0 13.397 2.859 24.256 8.512 32.491 5.717 8.256 19.243 20.309 40.683 36.16 31.275 22.315 52.459 42.411 63.616 60.288 11.136 17.877 16.725 39.083 16.725 63.616 0.043 36.843-13.483 66.325-40.64 88.405zM512 938.667c-282.773 0-512-229.227-512-512s229.227-512 512-512 512 229.227 512 512-229.227 512-512 512zM512-0c-235.648 0-426.667 191.019-426.667 426.667 0 235.627 191.019 426.667 426.667 426.667s426.667-191.040 426.667-426.667c0-235.648-191.019-426.667-426.667-426.667z" />
<glyph unicode="&#xe917;" glyph-name="dot-notification-question" d="M480.149 145.494c-38.848 0-68.416-9.707-88.725-29.12-20.331-19.413-30.528-48.107-30.528-85.995 0-36.608 10.411-64.981 31.189-85.035 20.779-20.117 50.112-30.165 88.064-30.165 37.035 0 65.941 10.283 86.72 30.805 20.779 20.565 31.147 48.683 31.147 84.395 0 36.971-10.283 65.429-30.784 85.333-20.587 19.84-49.6 29.781-87.083 29.781zM741.995 871.104c-54.869 44.715-128.853 67.072-221.867 67.072-112.896 0-219.755-28.224-320.448-84.693l73.835-148.352c86.699 44.245 163.947 66.389 231.68 66.389 38.869 0 69.12-7.68 90.752-23.040 21.717-15.36 32.512-37.717 32.512-67.072 0-26.197-7.552-49.899-22.677-71.125s-46.379-48.768-93.803-82.667c-49.216-36.117-83.115-70.229-101.589-102.293-18.56-32.064-27.797-69.803-27.797-113.173v-50.112h179.541v40.619c0 27.115 5.781 49.003 17.301 65.749 11.499 16.661 38.912 41.088 82.283 73.152 63.211 45.163 106.133 85.803 128.704 121.963 22.592 36.139 33.92 79.061 33.92 128.725 0 74.496-27.456 134.144-82.347 178.859z" />
<glyph unicode="&#xe918;" glyph-name="dot-notification-error-fill" d="M512 938.667c-282.773 0-512-229.227-512-512s229.227-512 512-512 512 229.227 512 512-229.227 512-512 512zM767.936 215.958l-45.269-45.227-210.667 210.645-210.645-210.645-45.291 45.227 210.688 210.688-210.688 210.688 45.227 45.269 210.709-210.709 210.731 210.709 45.205-45.269-210.667-210.688 210.667-210.688z" />
<glyph unicode="&#xe919;" glyph-name="dot-notification-error-outline" d="M512 938.667c-282.773 0-512-229.227-512-512s229.227-512 512-512 512 229.227 512 512-229.227 512-512 512zM512-0c-235.648 0-426.667 191.019-426.667 426.667s191.019 426.667 426.667 426.667 426.667-191.019 426.667-426.667-191.019-426.667-426.667-426.667zM722.731 682.603l-210.731-210.709-210.709 210.709-45.227-45.269 210.688-210.688-210.688-210.688 45.291-45.227 210.645 210.645 210.667-210.645 45.269 45.227-210.667 210.688 210.667 210.688z" />
<glyph unicode="&#xe91a;" glyph-name="dot-notification-error" d="M1023.957 848.064l-90.453 90.56-421.483-421.461-421.461 421.461-90.475-90.56 421.419-421.419-421.419-421.419 90.581-90.453 421.355 421.355 421.355-421.355 90.581 90.453-421.419 421.419z" />
<glyph unicode="&#xe91b;" glyph-name="dot-notification-none" d="M512 938.667c-282.773 0-512-229.227-512-512s229.227-512 512-512 512 229.227 512 512-229.227 512-512 512zM85.333 426.667c0 235.648 191.019 426.667 426.667 426.667 103.467 0 198.251-36.843 272.107-98.069l-600.704-600.704c-61.227 73.856-98.069 168.64-98.069 272.107zM512-0c-101.461 0-194.539 35.563-267.776 94.699l599.723 599.701c59.157-73.195 94.72-166.272 94.72-267.733 0-235.648-191.019-426.667-426.667-426.667z" />
<glyph unicode="&#xe91c;" glyph-name="dot-action-arrow-down" d="M0 673.323h1024l-512-493.312z" />
<glyph unicode="&#xe91d;" glyph-name="dot-action-next" d="M1.237 537.963h551.509v245.035l470.016-355.456-470.016-357.205v246.741h-551.509z" />
<glyph unicode="&#xe91e;" glyph-name="dot-action-collapse" d="M298.176 554.155h128.491v-639.488h170.667v639.488h128.491l-213.824 213.845zM1013.333 938.667h-1013.333v-88h1024v88z" />
<glyph unicode="&#xe91f;" glyph-name="dot-action-expand" d="M725.824 299.158h-128.491v639.509h-170.667v-639.509h-128.491l213.824-213.824zM85.333 2.667h-85.333v-88h1024v88z" />
<glyph unicode="&#xe920;" glyph-name="dot-action-delete" d="M661.333 810.667v128h-298.667v-128h-277.333v-215.104h63.104v-680.896h727.104v680.896h63.125v215.104h-277.333zM341.333-0h-85.333v597.333h85.333v-597.333zM554.667-0h-85.333v597.333h85.333v-597.333zM426.667 810.667v64h170.667v-64h-170.667zM768-0h-85.333v597.333h85.333v-597.333z" />
<glyph unicode="&#xe921;" glyph-name="dot-action-sort" d="M1024 426.667l-170.667 149.333v-106.667h-298.667v298.667h105.771l-148.437 170.667-149.333-170.667h106.667v-298.667h-298.667v106.667l-170.667-149.333 170.667-149.333v106.667h298.667v-298.667h-106.005l148.672-170.667 148.672 170.667h-106.005v298.667h298.667v-106.667z" />
<glyph unicode="&#xe922;" glyph-name="dot-notification-info-fill" d="M512-85.333c282.773 0 512 229.227 512 512s-229.227 512-512 512-512-229.227-512-512 229.227-512 512-512zM469.333 160v363.989h85.333v-363.989h-85.333zM512 693.334c23.595 0 42.667-19.115 42.667-42.667s-19.093-42.667-42.667-42.667c-23.531 0-42.667 19.115-42.667 42.667s19.115 42.667 42.667 42.667z" />
<glyph unicode="&#xe923;" glyph-name="dot-notification-info-outline" d="M512 938.667c-282.773 0-512-229.227-512-512s229.227-512 512-512 512 229.227 512 512-229.227 512-512 512zM512-0c-235.648 0-426.667 191.019-426.667 426.667s191.019 426.667 426.667 426.667 426.667-191.019 426.667-426.667-191.019-426.667-426.667-426.667zM554.667 619.328c0-23.564-19.103-42.667-42.667-42.667s-42.667 19.103-42.667 42.667c0 23.564 19.103 42.667 42.667 42.667s42.667-19.103 42.667-42.667zM469.376 512.662h85.269v-320.661h-85.269v320.661z" />
<glyph unicode="&#xe924;" glyph-name="dot-notification-info" d="M604.928 845.632c0-51.323-41.605-92.928-92.928-92.928s-92.928 41.605-92.928 92.928c0 51.323 41.605 92.928 92.928 92.928s92.928-41.605 92.928-92.928zM419.157 613.27h185.749v-698.496h-185.749v698.496z" />
<glyph unicode="&#xe925;" glyph-name="dot-action-close-fill" d="M512 938.667c-282.773 0-512-229.227-512-512s229.227-512 512-512 512 229.227 512 512-229.227 512-512 512zM767.936 215.958l-45.269-45.227-210.667 210.645-210.645-210.645-45.291 45.227 210.688 210.688-210.688 210.688 45.227 45.269 210.709-210.709 210.731 210.709 45.205-45.269-210.667-210.688 210.667-210.688z" />
<glyph unicode="&#xe926;" glyph-name="dot-action-close-outline" d="M512 938.667c-282.773 0-512-229.227-512-512s229.227-512 512-512 512 229.227 512 512-229.227 512-512 512zM512-0c-235.648 0-426.667 191.019-426.667 426.667s191.019 426.667 426.667 426.667 426.667-191.019 426.667-426.667-191.019-426.667-426.667-426.667zM722.731 682.603l-210.731-210.709-210.709 210.709-45.227-45.269 210.688-210.688-210.688-210.688 45.291-45.227 210.645 210.645 210.667-210.645 45.269 45.227-210.667 210.688 210.667 210.688z" />
<glyph unicode="&#xe927;" glyph-name="dot-action-close" d="M1023.957 848.064l-90.453 90.56-421.483-421.461-421.461 421.461-90.475-90.56 421.419-421.419-421.419-421.419 90.581-90.453 421.355 421.355 421.355-421.355 90.581 90.453-421.419 421.419z" />
<glyph unicode="&#xe928;" glyph-name="dot-action-configure" d="M692.928 426.731c20.629 45.568 32.405 95.979 32.405 149.269 0 200.299-162.368 362.667-362.667 362.667-53.269 0-103.701-11.776-149.269-32.405l202.752-202.752c-0.661 0.661-24.171-157.739-24.171-157.739l-156.416-23.701-203.2 203.179c-20.587-45.568-32.363-95.979-32.363-149.248 0-200.299 162.368-362.667 362.667-362.667 53.269 0 103.68 11.776 149.227 32.384l331.093-331.051 180.992 180.992-331.051 331.072z" />
<glyph unicode="&#xe929;" glyph-name="dot-action-duplicate" d="M339.563 853.334h108.437v85.333h-192v-170.667h83.563zM533.333 938.667h213.333v-85.333h-213.333v85.333zM936.896 661.334h87.104v-212.437h-87.104v212.437zM875.563 938.667h-43.115v-85.333h104.448v-107.008h87.104v192.341zM936.896 341.334v-85.333h-83.563v-85.333h170.667v190.229h-87.104zM0-85.333h768v768h-768v-768zM85.333 597.334h597.333v-597.333h-597.333v597.333z" />
<glyph unicode="&#xe92a;" glyph-name="dot-action-generate-code" d="M365.333 529.664l-152 152v0.96h-213.333v-85.333h177.024l127.979-127.957zM1024 638.678l-213.333 129.323v-85.376h-207.659v-0.619l-425.963-425.963h-177.045v-85.333h213.333v0.96l425.643 425.621h171.691v-86.613zM1024 212.011l-213.333 128v-83.968h-171.712l-127.957 127.957-60.331-60.331 152.96-152.96 0.363 0.384v-0.384h206.677v-85.376z" />
<glyph unicode="&#xe92b;" glyph-name="dot-action-arrow-up" d="M1024 180.011h-1024l512 493.312z" />
<glyph unicode="&#xe92c;" glyph-name="dot-action-logout" d="M768-0h-682.667v853.333h682.667v-85.333h85.333v170.667h-853.333v-1024h853.333v170.667h-85.333zM1024 426.667l-213.845 213.824v-128.491h-532.821v-170.667h532.821v-128.491z" />
<glyph unicode="&#xe92d;" glyph-name="dot-action-print" d="M746.667 254.208v-235.733h-469.333v257.088h-85.333v-359.125h640v359.125h-85.333zM277.333 768v85.333h469.333v-128.896h85.333v214.229h-640v-214.229h85.333zM0 681.344v-511.573h129.771v163.563h765.355v-163.563h128.875v511.573zM340.437 275.563h343.104v-60.885h-343.104v60.885zM340.437 169.771h256.213v-64h-256.213v64z" />
<glyph unicode="&#xe92e;" glyph-name="dot-action-previous" d="M1022.763 537.963h-551.509v245.035l-470.016-355.456 470.016-357.205v246.741h551.509z" />
<glyph unicode="&#xe92f;" glyph-name="dot-action-search" d="M730.709 283.371l-15.083-15.083-38.208 38.208c16.832 19.883 31.403 41.664 43.968 64.683 0.213 0.363 0.405 0.725 0.597 1.109 5.717 10.56 10.923 21.397 15.637 32.491 0.128 0.277 0.235 0.512 0.341 0.789 19.371 45.824 30.443 96 30.443 148.885 0 212.203-172.032 384.213-384.213 384.213-0.021 0-0.064 0-0.085 0-0.043 0-0.085 0-0.107 0-212.075 0-384-171.925-384-384 0-0.021 0-0.064 0-0.107 0-0.021 0-0.064 0-0.085 0-212.181 172.011-384.192 384.192-384.192 52.885 0 103.083 11.072 148.885 30.443 0.256 0.107 0.512 0.213 0.789 0.341 11.115 4.715 21.931 9.941 32.469 15.637 0.384 0.213 0.768 0.405 1.152 0.597 23.019 12.565 44.8 27.115 64.661 43.968l38.208-38.208-15.083-15.104 293.248-293.248 75.477 75.371-293.291 293.291zM682.667 545.771c0-164.949-133.717-298.667-298.667-298.667s-298.667 133.717-298.667 298.667c0 164.949 133.717 298.667 298.667 298.667s298.667-133.717 298.667-298.667z" />
<glyph unicode="&#xe930;" glyph-name="dot-action-share" d="M896 170.667c-34.155 0-65.109-13.461-88.064-35.243l-558.251 251.669c4.075 12.459 6.315 25.749 6.315 39.573 0 13.909-2.283 27.264-6.4 39.787l558.165 251.648c22.976-21.909 54.016-35.435 88.235-35.435 70.699 0 128 57.323 128 128s-57.301 128-128 128c-70.656 0-128-57.323-128-128 0-1.045 0.128-2.091 0.171-3.115l-586.901-264.597c-16.235 7.445-34.24 11.712-53.269 11.712-70.677 0-128-57.323-128-128s57.323-128 128-128c19.136 0 37.248 4.309 53.547 11.861l586.624-264.469c-0.021-1.152-0.171-2.24-0.171-3.392 0-70.656 57.323-128 128-128s128 57.344 128 128c0 70.699-57.323 128-128 128zM897.323 873.344c35.328 0 64-28.651 64-64s-28.672-64-64-64-64 28.651-64 64 28.672 64 64 64zM122.667 362.667c-35.349 0-64 28.651-64 64s28.651 64 64 64 64-28.651 64-64-28.651-64-64-64zM897.323-22.656c-35.328 0-64 28.651-64 64s28.672 64 64 64 64-28.651 64-64-28.651-64-64-64z" />
<glyph unicode="&#xe931;" glyph-name="dot-action-view" d="M584.789 759.36c-23.424 5.461-47.701 8.64-72.789 8.64s-49.365-3.179-72.789-8.64c-258.923-52.992-439.211-332.693-439.211-332.693s214.656-333.333 512-341.333c297.344 8 512 341.333 512 341.333s-180.288 279.701-439.211 332.693zM512 170.667c-141.376 0-256 114.624-256 256 0 141.397 114.624 256 256 256s256-114.624 256-256c0-141.376-114.624-256-256-256zM512 597.334v0-170.667l-120.683 120.683c-30.869-30.891-49.984-73.557-49.984-120.683 0-94.251 76.416-170.667 170.667-170.667 94.229 0 170.667 76.416 170.667 170.667s-76.416 170.667-170.667 170.667z" />
<glyph unicode="&#xe932;" glyph-name="dot-interface-add-ons" d="M896 458.667c-23.339 0-45.163-6.357-64-17.28v209.28h-209.28c10.923 18.837 17.28 40.661 17.28 64 0 70.677-57.323 128-128 128s-128-57.323-128-128c0-23.339 6.357-45.163 17.28-64h-209.28v-209.28c-18.837 10.923-40.661 17.28-64 17.28-70.677 0-128-57.323-128-128s57.323-128 128-128c23.339 0 45.163 6.357 64 17.28v-209.28h209.28c-10.923 18.837-17.28 40.661-17.28 64 0 70.677 57.323 128 128 128s128-57.323 128-128c0-23.339-6.357-45.163-17.28-64h209.28v209.28c18.837-10.923 40.661-17.28 64-17.28 70.677 0 128 57.323 128 128s-57.323 128-128 128z" />
<glyph unicode="&#xe933;" glyph-name="dot-interface-ajax-admin" d="M511.979 450.923c-213.632 0-386.795-173.205-386.795-386.837v-148.757h773.632v148.736c0 213.653-173.205 386.859-386.837 386.859zM308.885 598.699l39.659 13.995c10.709-17.856 24.491-33.984 40.875-47.701l-19.157-40.043 86.037-41.131 19.115 40.043c20.544-4.032 41.237-4.693 61.44-2.027l14.549-41.259 71.915 25.408-14.379 40.619c18.432 10.816 34.901 24.917 49.024 41.749l40-19.136 41.024 85.76-40.043 19.157c4.16 21.035 4.8 42.304 1.92 62.955l39.637 13.973-25.387 71.915-39.659-13.973c-10.645 17.792-24.405 33.856-40.683 47.552l19.157 40.085-86.421 41.344-19.157-40.128c-21.355 4.16-43.008 4.779-63.936 1.685l-13.44 38.080-71.957-25.408 13.675-38.72c-17.323-10.517-33.024-23.979-46.421-39.936l-40.085 19.157-41.28-86.315 40.107-19.157c-4.117-20.907-4.715-42.069-1.835-62.635l-39.659-13.973 25.365-71.936zM512 777.344c35.349 0 64-28.651 64-64s-28.651-64-64-64c-35.349 0-64 28.651-64 64s28.651 64 64 64z" />
<glyph unicode="&#xe934;" glyph-name="dot-interface-blockquote" d="M0 333.334h270.293c-1.323-70.613-28.544-134.677-72.597-183.467-20.16-19.029-42.283-30.037-61.419-36.395-23.467-6.997-48.213-8.448-61.504-8.704h-74.773v-48.768l186.667 0.064c153.707 0.683 278.251 124.075 281.109 277.269h1.557v469.333h-469.333v-469.333zM554.667 802.667v-469.333h271.787c0-63.808-21.333-122.496-57.045-169.728-17.899-23.232-38.997-38.229-58.901-47.637-0.171-0.085-0.341-0.171-0.491-0.256-2.965-1.387-5.845-2.603-8.725-3.755-32.299-11.883-83.52-12.523-83.52-12.523h-63.104v-48.768h186.667c156.096 0 282.667 126.571 282.667 282.667v469.333h-469.333z" />
<glyph unicode="&#xe935;" glyph-name="dot-interface-calendar" d="M810.667 853.334v85.333h-85.333v-85.333h-426.667v85.333h-85.333v-85.333h-213.333v-938.667h1024v938.667h-213.333zM938.667-0h-853.333v514.133h853.333v-514.133zM85.333 599.467v168.533h128v-85.333h85.333v85.333h426.667v-85.333h85.333v85.333h128v-168.533h-853.333zM160 426.667h128v-128h-128v128zM355.563 426.667h128v-128h-128v128zM545.771 426.667h128v-128h-128v128zM736 426.667h128v-128h-128v128zM160 234.667h128v-128h-128v128zM355.563 234.667h128v-128h-128v128zM545.771 234.667h128v-128h-128v128zM736 234.667h128v-128h-128v128z" />
<glyph unicode="&#xe936;" glyph-name="dot-interface-calendar-notifications" d="M143.339 480h114.667v-114.667h-114.667v114.667zM318.507 480h114.667v-114.667h-114.667v114.667zM488.917 480h114.667v-114.667h-114.667v114.667zM659.328 480h114.667v-114.667h-114.667v114.667zM143.339 308.011h114.667v-114.667h-114.667v114.667zM318.507 308.011h114.667v-114.667h-114.667v114.667zM488.917 308.011h114.667v-114.667h-114.667v114.667zM659.328 308.011h114.667v-114.667h-114.667v114.667zM1024 42.667c0-70.692-57.308-128-128-128s-128 57.308-128 128c0 70.692 57.308 128 128 128s128-57.308 128-128zM76.437 97.771v460.565h764.437v-331.797c17.472 5.227 35.968 8.128 55.125 8.128 7.211 0 14.315-0.469 21.333-1.259v628.821h-191.104v76.437h-76.459v-76.437h-382.208v76.437h-76.459v-76.437h-191.104v-840.896h705.259c-0.789 7.019-1.259 14.123-1.259 21.333 0 19.157 2.901 37.653 8.128 55.104h-635.691zM76.437 785.771h114.667v-76.437h76.437v76.437h382.229v-76.437h76.459v76.437h114.667v-150.997h-764.459v150.997z" />
<glyph unicode="&#xe937;" glyph-name="dot-interface-cart" d="M459.776 383.552l0.448 0.107v-0.107h424.704l91.52 341.44h-608.149zM397.781 298.667l-158.635 582.251h-239.147v-86.251h174.208l158.379-581.333 0.512 0.149v-0.149h690.901v85.333zM976.448 85.334c0-47.128-38.205-85.333-85.333-85.333s-85.333 38.205-85.333 85.333c0 47.128 38.205 85.333 85.333 85.333s85.333-38.205 85.333-85.333zM503.765 85.334c0-47.128-38.205-85.333-85.333-85.333s-85.333 38.205-85.333 85.333c0 47.128 38.205 85.333 85.333 85.333s85.333-38.205 85.333-85.333z" />
<glyph unicode="&#xe938;" glyph-name="dot-form-checkbox" d="M0-85.333h640v640h-640v-640zM85.333 469.334h469.333v-469.333h-469.333v469.333zM384 938.667v-320h85.333v234.667h469.333v-469.333h-228.011v-85.333h313.344v640zM389.675 285.099l0.149-0.128-122.432-122.432-105.237 105.216-34.112-34.112 120.619-120.619-0.128-0.128 18.517-18.496 0.107 0.128 0.107-0.128 8.256 8.256 0.085-0.064 238.123 238.123-34.24 34.219z" />
<glyph unicode="&#xe939;" glyph-name="dot-interface-coupons" d="M0 746.667v-223.744h42.667c53.163 0 96.277-43.115 96.277-96.256 0-53.184-43.115-96.277-96.277-96.277h-42.667v-223.723h1024v223.744h-42.667c-53.163 0-96.277 43.093-96.277 96.256s43.115 96.256 96.277 96.256h42.667v223.744h-1024zM820.885 426.667c0-73.813 49.899-135.851 117.781-154.56v-80.107h-853.333v80.128c67.861 18.709 117.781 80.725 117.781 154.56 0 73.792-49.899 135.808-117.781 154.517v80.128h853.333v-80.128c-67.883-18.709-117.781-80.725-117.781-154.539zM474.539 492.608c0-34.944-6.741-61.141-20.267-78.699-13.525-17.536-33.323-26.304-59.413-26.304-25.088 0-44.416 9.003-58.091 27.008s-20.501 43.989-20.501 77.995c0 69.376 26.197 104.064 78.592 104.064 25.664 0 45.312-9.003 59.093-26.987 13.717-18.005 20.587-43.691 20.587-77.077zM373.653 492.139c0-19.285 1.728-33.685 5.12-43.157 3.435-9.493 8.917-14.251 16.491-14.251 14.592 0 21.888 19.136 21.888 57.408 0 37.952-7.317 56.917-21.888 56.917-7.573 0-13.056-4.672-16.491-13.995-3.392-9.344-5.12-23.637-5.12-42.923zM631.211 591.894l-184.683-332.928h-54.656l184.661 332.928h54.677zM707.733 359.595c0-34.795-6.741-60.907-20.267-78.464-13.504-17.536-33.323-26.304-59.435-26.304-25.067 0-44.395 9.024-58.069 26.987-13.653 18.005-20.501 43.947-20.501 77.781 0 69.376 26.219 104.064 78.571 104.064 25.685 0 45.397-8.981 59.136-26.987 13.739-17.984 20.565-43.669 20.565-77.077zM606.827 359.147c0-19.264 1.728-33.664 5.141-43.136 3.392-9.515 8.917-14.251 16.512-14.251 14.549 0 21.824 19.136 21.824 57.387 0 37.952-7.296 56.939-21.824 56.939-7.595 0-13.12-4.672-16.512-13.995-3.413-9.387-5.141-23.68-5.141-42.944z" />
<glyph unicode="&#xe93a;" glyph-name="dot-interface-css-templates" d="M229.333 528.534v304.533h408.192v-153.067h153.067v-151.467h102.037v206.123l-200.448 200.448h-564.885v-406.571zM790.592 16.704h-663.296v-102.037h765.333v102.037zM224.768 93.952c-106.645 0-159.915 58.496-159.915 175.573 0 58.197 14.507 102.656 43.52 133.397 28.992 30.72 70.549 46.101 124.693 46.101 39.616 0 75.157-7.744 106.624-23.253l-27.563-72.32c-14.72 5.909-28.416 10.773-41.067 14.571-12.651 3.776-25.323 5.696-37.973 5.696-48.619 0-72.939-34.539-72.939-103.573 0-66.965 24.32-100.48 72.939-100.48 17.963 0 34.624 2.368 49.941 7.189 15.317 4.779 30.635 12.309 45.952 22.528v-79.936c-15.125-9.621-30.379-16.277-45.803-19.947-15.467-3.712-34.901-5.547-58.411-5.547zM647.253 201.814c0-35.115-12.203-61.867-36.608-80.277-24.427-18.389-60.907-27.584-109.525-27.584-24.917 0-46.165 1.707-63.723 5.035-17.579 3.371-34.005 8.341-49.323 14.891v77.184c17.365-8.171 36.928-14.997 58.667-20.565 21.781-5.504 40.896-8.256 57.472-8.256 33.899 0 50.837 9.835 50.837 29.419 0 7.381-2.219 13.333-6.741 17.941-4.437 4.565-12.224 9.771-23.253 15.637-11.072 5.781-25.728 12.587-44.117 20.352-26.347 11.029-45.696 21.205-58.048 30.656-12.373 9.365-21.355 20.16-26.987 32.32-5.611 12.117-8.427 27.115-8.427 44.885 0 30.443 11.776 53.952 35.392 70.613 23.573 16.661 57.003 24.96 100.352 24.96 41.259 0 81.344-8.96 120.405-26.965l-28.224-67.392c-17.152 7.36-33.195 13.376-48.085 18.069-14.891 4.715-30.123 7.040-45.653 7.040-27.563 0-41.344-7.445-41.344-22.379 0-8.384 4.437-15.637 13.312-21.739 8.917-6.144 28.331-15.211 58.368-27.243 26.773-10.837 46.379-20.949 58.837-30.336 12.48-9.387 21.632-20.224 27.584-32.469 5.909-12.224 8.832-26.859 8.832-43.797zM959.147 201.814c0-35.115-12.203-61.867-36.608-80.277-24.448-18.389-60.885-27.584-109.547-27.584-24.896 0-46.144 1.707-63.723 5.035-17.579 3.371-34.005 8.341-49.301 14.891v77.184c17.323-8.171 36.885-14.997 58.645-20.565 21.76-5.504 40.917-8.256 57.408-8.256 33.92 0 50.901 9.835 50.901 29.419 0 7.381-2.24 13.333-6.741 17.941-4.501 4.565-12.245 9.771-23.296 15.637-11.072 5.781-25.771 12.587-44.075 20.352-26.389 11.029-45.739 21.205-58.069 30.656-12.416 9.365-21.355 20.16-27.008 32.32-5.611 12.117-8.427 27.115-8.427 44.885 0 30.443 11.819 53.952 35.413 70.613 23.552 16.661 57.045 24.96 100.288 24.96 41.323 0 81.408-8.96 120.427-26.965l-28.181-67.392c-17.131 7.36-33.173 13.376-48.107 18.069-14.912 4.715-30.101 7.040-45.675 7.040-27.541 0-41.323-7.445-41.323-22.379 0-8.384 4.437-15.637 13.291-21.739 8.896-6.144 28.373-15.211 58.368-27.243 26.773-10.837 46.357-20.949 58.859-30.336 12.437-9.387 21.611-20.224 27.584-32.469 5.952-12.224 8.896-26.859 8.896-43.797z" />
<glyph unicode="&#xe93b;" glyph-name="dot-interface-currency" d="M745.493 339.051c-12.565 26.24-32.363 49.792-59.307 70.656-26.965 20.843-69.397 43.328-127.275 67.413-51.413 21.205-87.019 38.293-106.773 51.221-19.776 12.949-33.984 26.688-42.603 41.259s-12.949 32.107-12.949 52.587c0 29.845 10.795 53.845 32.363 72 21.589 18.155 53.227 27.243 94.912 27.243 55.019 0 117.589-14.741 187.691-44.224l40.981 105.173c-58.176 25.728-116.587 41.323-175.189 47.040v109.248h-108.011v-110.549c-52.267-7.232-95.787-24.789-130.453-52.8-46.72-37.739-70.101-89.515-70.101-155.307 0-52.48 14.72-97.429 44.203-134.827s80.171-70.656 152.085-99.755c69.76-28.032 115.776-52.331 138.048-72.832 22.315-20.501 33.451-45.461 33.451-74.965 0-32.704-12.139-58.752-36.416-78.165-24.277-19.456-61.909-29.12-112.981-29.12-34.88 0-72.533 4.843-112.981 14.549s-78.656 22.997-114.603 39.915v-121.877c54.805-26.731 124.821-40.427 209.728-41.344v-106.923h107.989v116.715c43.755 9.621 80.853 26.155 110.997 49.877 50.709 39.915 76.053 94.912 76.053 165.035 0.043 35.541-6.272 66.496-18.859 92.757z" />
<glyph unicode="&#xe93c;" glyph-name="dot-interface-discounts" d="M625.621 523.179c-5.888-5.931-6.528-13.824-1.792-23.744 4.629-9.899 14.549-22.315 29.675-37.248 15.104-14.891 27.691-24.704 37.76-29.376 10.133-4.651 18.112-3.968 23.957 1.963 11.285 11.413 1.92 31.936-28.075 61.525-29.803 29.355-50.304 38.336-61.525 26.88zM598.933 938.731l-598.933-599.019 425.109-425.045 598.955 598.997v424.939l-425.131 0.128zM467.136 318.016c-19.328-19.669-41.387-27.904-66.069-24.619-24.64 3.157-50.325 17.92-76.971 44.224-54.379 53.675-61.333 101.035-20.8 142.080 19.819 20.117 42.112 28.587 66.837 25.451s50.197-17.643 76.416-43.477c27.349-27.008 42.688-52.587 45.995-76.715 3.264-24.192-5.205-46.507-25.408-66.944zM565.739 216.192l-118.123 402.283 42.283 42.859 118.080-402.347-42.24-42.795zM751.659 398.102c-19.392-19.605-41.429-27.904-66.112-24.619-24.661 3.179-50.283 17.856-76.843 44.053-54.379 53.675-61.312 101.035-20.821 142.123 19.861 20.096 42.155 28.587 66.901 25.429 24.683-3.136 50.197-17.621 76.352-43.456 27.264-26.88 42.517-52.459 45.824-76.587 3.328-24.171-5.099-46.507-25.301-66.944zM910.336 734.891c-24.875-24.853-65.173-24.853-90.133-0.043-24.853 24.939-24.853 65.259-0.043 90.197 24.917 24.875 65.323 24.875 90.176 0.043 24.939-25.003 24.981-65.259 0-90.197zM340.949 443.286c-5.909-5.973-6.507-13.909-1.792-23.787 4.651-9.899 14.571-22.315 29.675-37.269 15.104-14.912 27.691-24.683 37.781-29.333 10.069-4.693 18.091-4.053 23.957 1.92 11.221 11.413 1.899 31.936-28.075 61.547-29.781 29.355-50.304 38.293-61.547 26.923z" />
<glyph unicode="&#xe93d;" glyph-name="dot-form-dropdown" d="M191.552 469.334h341.333v-85.333h-341.333v85.333zM191.552 320h341.333v-85.333h-341.333v85.333zM191.552 170.667h341.333v-85.333h-341.333v85.333zM682.219 938.667h-640v-1024h640v640h299.584v384h-299.584zM596.885-0h-469.333v554.667h469.333v-554.667zM596.885 640h-469.333v213.333h469.333v-213.333zM789.333 694.998l-83.499 102.443h167.040l-83.541-102.443z" />
<glyph unicode="&#xe93e;" glyph-name="dot-interface-email-templates" d="M488.853 622.443c-11.072-13.141-16.576-30.997-16.576-53.547 0-36.011 14.144-54.016 42.411-54.016 29.803 0 46.080 22.635 48.896 67.925l2.795 55.403c-9.728 2.624-20.181 3.947-31.296 3.947-19.797 0-35.179-6.592-46.229-19.712zM0 832v-768h1024v768h-1024zM362.176 670.528c17.323 31.467 41.323 55.509 72 72.213 30.656 16.683 65.387 25.024 104.149 25.024 33.515 0 63.424-6.955 89.621-20.864 26.155-13.909 46.464-33.728 60.907-59.477 14.464-25.728 21.717-55.424 21.717-89.109 0-22.101-3.52-42.304-10.432-60.587-6.955-18.325-16.768-32.576-29.312-42.795-12.608-10.197-27.157-15.275-43.712-15.275-12.203 0-22.805 3.243-31.765 9.728s-14.976 15.296-18.048 26.432h-2.816c-7.552-12.053-16.939-21.099-28.011-27.115-11.136-6.016-23.659-9.024-37.568-9.024-25.195 0-44.992 8.107-59.435 24.341s-21.675 38.187-21.675 65.835c0 31.829 9.579 57.685 28.736 77.525 19.157 19.861 44.885 29.781 77.184 29.781 11.755 0 24.789-1.045 39.019-3.115 14.336-2.112 27.029-4.971 38.165-8.704l-5.099-107.776v-5.568c0-24.725 8.021-37.099 24.085-37.099 12.245 0 21.952 7.893 29.099 23.637 7.189 15.787 10.773 35.84 10.773 60.267 0 26.432-5.397 49.643-16.192 69.653-10.88 20.011-26.219 35.435-46.123 46.251-19.989 10.816-42.816 16.213-68.629 16.213-32.917 0-61.547-6.805-85.867-20.395-24.341-13.611-42.923-33.024-55.744-58.283s-19.221-54.592-19.221-87.957c0-44.821 11.968-79.275 35.925-103.381 23.957-24.085 58.325-36.139 103.125-36.139 34.155 0 69.781 6.955 106.88 20.843v-38.016c-32.469-13.269-67.797-19.947-105.941-19.947-57.173 0-101.76 15.424-133.76 46.251s-47.979 73.813-47.979 128.981c-0.021 40.299 8.64 76.203 25.941 107.648zM938.667 149.334h-853.333v300.437l426.667-152.896 426.667 152.896v-300.437z" />
<glyph unicode="&#xe93f;" glyph-name="dot-interface-calendar-steps" d="M788.928 469.334c129.6 0 234.667 105.067 234.667 234.667s-105.067 234.667-234.667 234.667-234.667-105.067-234.667-234.667 105.067-234.667 234.667-234.667zM640 746.667h106.261v106.667h85.333v-106.667h106.667v-85.333h-106.667v-106.667h-85.333v106.667h-106.261v85.333zM0 938.667h469.333v-469.333h-469.333v469.333zM0 384h469.333v-469.333h-469.333v469.333zM554.261 384h469.333v-469.333h-469.333v469.333z" />
<glyph unicode="&#xe940;" glyph-name="dot-interface-form-fields" d="M277.333 673.11h746.667v-85.333h-746.667v85.333zM84.501 654.486l-39.253 39.253-45.248-45.269 39.253-39.253-0.085-0.085 45.269-45.248 152.299 152.299-45.248 45.269zM277.333 437.099h746.667v-85.333h-746.667v85.333zM84.523 418.475l-39.275 39.253-45.248-45.269 39.253-39.253-0.085-0.085 45.269-45.248 152.299 152.32-45.248 45.248zM277.333 201.088h746.667v-85.333h-746.667v85.333zM84.501 182.507l-39.253 39.211-45.248-45.269 39.253-39.232-0.085-0.085 45.269-45.248 152.299 152.277-45.248 45.291z" />
<glyph unicode="&#xe941;" glyph-name="dot-interface-general-settings" d="M810.667 853.334v85.333h-85.333v-85.333h-426.667v85.333h-85.333v-85.333h-213.333v-938.667h1024v938.667h-213.333zM938.667-0h-853.333v514.133h853.333v-514.133zM938.667 599.467h-853.333v168.533h128v-85.333h85.333v85.333h426.667v-85.333h85.333v85.333h128v-168.533zM373.141 42.347l138.859 74.603 138.837-74.603-28.288 157.696 119.275 106.432-161.152 20.331-68.672 141.696-68.608-142.037-161.216-19.563 116.928-108.949z" />
<glyph unicode="&#xe942;" glyph-name="dot-interface-time" d="M512 938.667c-282.773 0-512-229.248-512-512 0-282.773 229.227-512 512-512s512 229.227 512 512c0 282.752-229.227 512-512 512zM512-0c-235.648 0-426.667 191.019-426.667 426.667s191.019 426.667 426.667 426.667 426.667-191.019 426.667-426.667-191.019-426.667-426.667-426.667zM480 789.334h64v-64h-64v64zM149.333 458.667h64v-64h-64v64zM747.528 707.482l45.248-45.261-45.261-45.248-45.248 45.261 45.261 45.248zM279.948 149.322l-45.242 45.267 45.267 45.242 45.242-45.267-45.267-45.242zM278.191 705.738l45.254-45.254-45.254-45.254-45.254 45.254 45.254 45.254zM745.805 147.574l-45.254 45.254 45.254 45.254 45.254-45.254-45.254-45.254zM810.667 458.667h-330.667v-394.667h64v330.667h330.667v64z" />
<glyph unicode="&#xe943;" glyph-name="dot-interface-badge" d="M742.293 298.070l-0.149-0.043-2.432 9.109c78.869 65.451 129.131 164.203 129.131 274.688 0 197.077-159.765 356.843-356.843 356.843-197.056 0-356.843-159.765-356.843-356.843 0-108.864 48.896-206.187 125.781-271.637l-9.643-35.989h0.021l-79.787-297.856 83.371 35.349 0.405 1.323 55.723 24.491 36.587-49.472 54.187-73.365 18.645 69.675 64.576 241.003c2.325-0.043 4.608-0.363 6.955-0.363 1.024 0 2.005 0.149 3.029 0.149l83.179-310.464 90.795 122.859 55.723-24.491 0.405-1.323 83.371-35.349-18.645 69.632-67.541 252.075zM386.133 57.366l-36.352 49.024-56.064-24.277 49.664 185.237c27.989-15.040 58.261-26.261 90.112-33.408l-47.36-176.576zM250.304 581.824c0 144.533 117.184 261.696 261.696 261.696s261.696-117.163 261.696-261.696c0-144.512-117.163-261.675-261.696-261.675s-261.696 117.163-261.696 261.675zM670.229 106.39l-36.352-49.024-47.083 175.573c31.893 6.805 62.165 17.963 90.283 32.683l49.216-183.531-56.064 24.299z" />
<glyph unicode="&#xe944;" glyph-name="dot-interface-location" d="M597.312 618.667c0-47.128-38.205-85.333-85.333-85.333s-85.333 38.205-85.333 85.333c0 47.128 38.205 85.333 85.333 85.333s85.333-38.205 85.333-85.333zM512 938.667c-175.36 0-317.589-141.099-319.787-315.947l-0.213 0.384c0 0-0.363-16.043 1.963-42.667 0.704-3.84 14.080-76.075 41.728-129.728 0-0.021 0-0.021 0.021-0.043l276.288-536 265.024 512c0 0 38.165 82.048 47.019 127.019 0.277 1.643 0.533 3.285 0.789 4.885 0.192 1.195 0.427 2.453 0.555 3.563 4.501 30.251 5.739 56.427 6.059 67.2-5.675 171.776-146.325 309.333-319.445 309.333zM716.779 503.616l-204.779-418.283-205.099 413.824c0 0 0 0.021-0.021 0.043-19.413 39.168-27.499 89.963-27.499 89.963-0.491 3.947-0.875 7.893-1.173 11.883-0.939 11.627-0.875 17.643-0.875 17.643 0 129.579 105.067 234.645 234.667 234.645 127.253 0 230.592-101.333 234.304-227.648-0.341-16-3.584-68.864-29.525-122.069z" />
<glyph unicode="&#xe945;" glyph-name="dot-interface-multi-language" d="M1024 426.667c0 268.288-206.4 488.235-469.035 510.080-0.107 0.064-0.192 0.149-0.299 0.192v-0.192c-14.080 1.173-28.288 1.92-42.667 1.92s-28.587-0.747-42.667-1.899v0.171c-0.107-0.064-0.192-0.149-0.299-0.213-262.635-21.824-469.035-241.771-469.035-510.059s206.379-488.235 469.035-510.059c0.107-0.085 0.192-0.171 0.299-0.235v0.213c14.080-1.173 28.288-1.92 42.667-1.92s28.587 0.747 42.667 1.92v-0.213c0.107 0.064 0.213 0.149 0.32 0.235 262.613 21.824 469.013 241.771 469.013 510.059zM85.333 426.667c0 29.696 3.072 58.667 8.853 86.656h131.285c-3.52-28.288-5.461-57.195-5.461-86.656 0-44.48 4.352-87.701 12.181-129.323h-126.784c-12.971 40.811-20.075 84.224-20.075 129.323zM301.44 426.667c0 29.589 2.261 58.539 6.485 86.656h161.408v-216h-153.237c-9.451 41.216-14.656 84.523-14.656 129.344zM696.469 598.656h-141.803v222.571c63.744-55.595 113.515-132.779 141.803-222.571zM469.333 821.227v-222.549h-141.803c28.288 89.771 78.059 166.955 141.803 222.549zM469.333 212.011v-179.883c-53.376 46.549-96.832 108.309-126.208 179.883h126.208zM554.667 32.128v179.883h126.208c-29.376-71.573-72.832-133.333-126.208-179.883zM554.667 297.344v215.979h161.408c4.224-28.139 6.485-57.088 6.485-86.656 0-44.821-5.205-88.128-14.677-129.323h-153.216zM798.528 513.323h131.307c5.76-27.989 8.832-56.96 8.832-86.656 0-45.099-7.104-88.512-20.075-129.323h-126.763c7.851 41.621 12.181 84.864 12.181 129.323 0 29.461-1.963 58.368-5.483 86.656zM902.293 598.656h-120.021c-21.376 83.307-57.685 158.72-105.451 221.611 100.629-42.197 181.461-121.92 225.472-221.611zM347.179 820.267c-47.765-62.869-84.075-138.304-105.451-221.611h-120c43.989 99.691 124.821 179.413 225.451 221.611zM143.68 212.011h110.549c21.909-66.432 53.504-126.997 92.971-178.944-85.803 35.947-157.013 99.328-203.52 178.944zM676.821 33.067c39.467 51.947 71.040 112.491 92.949 178.944h110.549c-46.507-79.616-117.739-142.997-203.499-178.944z" />
<glyph unicode="&#xe946;" glyph-name="dot-interface-multisite" d="M325.333 809.408h-154.667v-128.512h725.333v-554.155h128v682.667zM0 22.592h833.771v597.333h-833.771v-597.333zM85.333 470.592h661.333v-85.333h-661.333v85.333zM85.333 299.926h661.333v-85.333h-661.333v85.333z" />
<glyph unicode="&#xe947;" glyph-name="dot-interface-payment" d="M0 746.667v-640h1024v640h-1024zM938.667 192h-853.333v192h853.333v-192zM85.333 576v85.333h853.333v-85.333h-853.333z" />
<glyph unicode="&#xe948;" glyph-name="dot-action-refresh" d="M901.973 685.846c-86.229 137.195-238.4 228.608-412.373 228.608-232.277 0-426.027-162.581-475.136-380.011-0.192 0-0.32 0.064-0.512 0.064-0.384-2.219-0.576-4.267-0.939-6.443-2.411-11.435-4.373-22.997-5.973-34.688l-0.469 0.512c0 0-1.28-8.683-2.453-22.933-0.107-1.216-0.384-2.411-0.469-3.627h0.192c-3.115-40.555-4.693-120.533 21.397-188.971 0.128-0.341 0.256-0.619 0.384-0.96 4.459-14.315 9.259-27.52 14.080-39.147l0.171 0.171c10.368-25.643 19.008-39.595 19.008-39.595h0.213c81.813-154.411 243.563-259.925 430.507-259.925 217.856 0 401.835 143.083 464.405 340.224h-85.717c-59.093-151.509-206.251-258.944-378.688-258.944-140.032 0-263.040 71.104-336.021 178.923l-0.149-0.299c0 0-1.045 1.664-2.731 4.565-7.36 11.179-14.059 22.827-20.352 34.688-9.728 22.4-56.021 136.896-42.496 247.531 0.789 5.376 1.387 10.816 2.368 16.107 0.512 2.923 1.173 5.824 1.792 8.725 38.635 184.277 201.813 322.731 397.611 322.731 151.637 0 283.328-83.285 353.088-206.379l-160.043-159.467h339.2v338.027l-119.893-119.488z" />
<glyph unicode="&#xe949;" glyph-name="dot-interface-profile" d="M640 576c0-70.692-57.308-128-128-128s-128 57.308-128 128c0 70.692 57.308 128 128 128s128-57.308 128-128zM512 938.667c-282.773 0-512-229.227-512-512s229.227-512 512-512 512 229.227 512 512-229.227 512-512 512zM763.989 82.923v70.421c0 139.157-112.832 251.989-251.989 251.989-139.179 0-251.989-112.832-251.989-251.989v-70.421c-105.749 77.653-174.677 202.496-174.677 343.744 0 235.648 191.019 426.667 426.667 426.667s426.667-191.019 426.667-426.667c0-141.248-68.928-266.091-174.677-343.744z" />
<glyph unicode="&#xe94a;" glyph-name="dot-interface-repair-calendar" d="M766.229 426.667c-141.376 0-256-114.624-256-256s114.624-256 256-256 256 114.624 256 256-114.624 256-256 256zM766.229-21.333c-106.048 0-192 85.952-192 192s85.952 192 192 192 192-85.952 192-192-85.952-192-192-192zM133.333 512h106.667v-106.667h-106.667v106.667zM296.299 512h106.667v-106.667h-106.667v106.667zM454.805 512h106.667v-106.667h-106.667v106.667zM133.333 352h106.667v-106.667h-106.667v106.667zM296.299 352h106.667v-106.667h-106.667v106.667zM71.104 156.438v428.459h711.104v-73.707c24.469-1.131 48.235-4.8 71.104-10.837v367.211h-177.771v71.104h-71.125v-71.104h-355.52v71.104h-71.125v-71.104h-177.771v-782.229h436.075c-5.888 22.869-9.451 46.635-10.475 71.104h-354.496zM71.104 796.438h106.667v-71.104h71.104v71.104h355.563v-71.104h71.125v71.104h106.667v-140.459h-711.125v140.459zM820.651 156.224l-53.355 8.107c0 0-8.021 54.037-8.256 53.803l69.184 69.163c-15.552 7.040-32.747 11.072-50.944 11.072-68.309 0-123.712-55.403-123.712-123.733 0-18.176 4.011-35.371 11.051-50.923l-21.035-21.035c9.493-20.885 27.797-46.165 62.293-61.248l20.523 20.523c15.531-6.997 32.747-11.051 50.901-11.051 68.331 0 123.733 55.403 123.733 123.733 0 18.197-4.011 35.349-11.051 50.944l-69.333-69.355z" />
<glyph unicode="&#xe94b;" glyph-name="dot-interface-repair-database" d="M892.928 230.934l-72.747-72.747-56 8.469c0 0-8.427 56.704-8.64 56.469l72.597 72.576c-16.341 7.381-34.389 11.584-53.44 11.584-71.723 0-129.856-58.133-129.856-129.813 0-19.093 4.224-37.12 11.605-53.44l-24.981-25.003c6.485-12.331 27.392-46.997 64.576-65.024l25.216 25.216c16.32-7.381 34.347-11.584 53.44-11.584 71.68 0 129.813 58.133 129.813 129.835 0 19.072-4.203 37.163-11.584 53.461zM152.704 750.208h419.925v-76.352h-419.925v76.352zM152.704 593.92h419.925v-76.352h-419.925v76.352zM768 426.667c-141.376 0-256-114.624-256-256s114.624-256 256-256 256 114.624 256 256-114.624 256-256 256zM768-20.138c-106.048 0-192 85.952-192 192s85.952 192 192 192 192-85.952 192-192-85.952-192-192-192zM76.352 98.816v763.499h572.629v-394.773c24.128 9.685 49.728 16.405 76.352 19.968v451.157h-725.333v-916.203h484.544c-12.48 23.829-21.973 49.451-28.139 76.352h-380.053zM152.704 212.139h298.283c3.456 26.624 10.112 52.203 19.691 76.352h-317.973v-76.352zM572.629 423.702v18.667h-419.925v-76.352h362.261c16.704 21.632 36.053 40.981 57.664 57.685z" />
<glyph unicode="&#xe94c;" glyph-name="dot-interface-repair-search" d="M730.709 283.371l-15.083-15.083-38.208 38.208c16.832 19.883 31.403 41.664 43.968 64.661 0.213 0.384 0.405 0.747 0.597 1.131 5.717 10.539 10.923 21.376 15.637 32.491 0.128 0.256 0.235 0.491 0.341 0.768 19.371 45.824 30.443 96 30.443 148.885 0 212.203-172.032 384.235-384.213 384.235-0.021 0-0.064 0-0.085 0-0.043 0-0.085 0-0.107 0-212.075 0-384-171.947-384-384 0-0.021 0-0.064 0-0.107 0-0.021 0-0.064 0-0.085 0-212.16 172.011-384.213 384.192-384.213 52.885 0 103.083 11.093 148.885 30.464 0.256 0.085 0.512 0.213 0.789 0.341 11.115 4.715 21.931 9.92 32.469 15.616 0.384 0.213 0.768 0.427 1.152 0.619 23.019 12.544 44.8 27.115 64.661 43.968l38.208-38.208-15.083-15.125 293.269-293.269 75.456 75.413-293.291 293.291zM384 247.083c-164.949 0-298.667 133.717-298.667 298.667s133.717 298.667 298.667 298.667c164.949 0 298.667-133.717 298.667-298.667s-133.717-298.667-298.667-298.667zM584.256 634.539l-116.373-116.416-89.557 13.611c0 0-13.461 90.709-13.845 90.325l116.139 116.096c-26.133 11.819-54.976 18.56-85.504 18.56-114.667 0-207.659-92.971-207.659-207.68 0-30.507 6.741-59.392 18.539-85.461l-35.328-35.328c15.957-35.051 46.656-77.504 104.555-102.827l34.453 34.475c26.048-11.755 54.976-18.539 85.419-18.539 114.709 0 207.68 92.971 207.68 207.68 0.021 30.528-6.741 59.349-18.517 85.504z" />
<glyph unicode="&#xe94d;" glyph-name="dot-interface-businesses" d="M0 426.667c0-268.288 206.379-488.235 469.035-510.059 0.085-0.085 0.192-0.171 0.299-0.235v115.755c-53.376 46.549-96.832 108.309-126.208 179.883h126.208v85.333h-153.237c-9.451 41.195-14.656 84.501-14.656 129.323 0 29.589 2.261 58.539 6.485 86.656h161.408v85.333h-141.781c28.288 89.792 78.037 166.976 141.781 222.571v115.712c-0.107-0.064-0.192-0.149-0.299-0.213-262.635-21.824-469.035-241.771-469.035-510.059zM105.408 297.344c-12.971 40.811-20.075 84.224-20.075 129.323 0 29.696 3.072 58.667 8.853 86.656h131.285c-3.52-28.288-5.461-57.195-5.461-86.656 0-44.48 4.352-87.701 12.181-129.323h-126.784zM347.2 33.067c-85.803 35.968-157.013 99.328-203.52 178.944h110.549c21.909-66.453 53.504-127.019 92.971-178.944zM241.728 598.656h-120c43.989 99.669 124.843 179.413 225.472 221.611-47.787-62.869-84.096-138.304-105.472-221.611zM512 938.667v-1024h512v1024h-512zM725.333 85.334h-85.333v85.333h85.333v-85.333zM725.333 298.667h-85.333v85.333h85.333v-85.333zM725.333 512h-85.333v85.333h85.333v-85.333zM725.333 725.334h-85.333v85.333h85.333v-85.333zM896 85.334h-85.333v85.333h85.333v-85.333zM896 298.667h-85.333v85.333h85.333v-85.333zM896 512h-85.333v85.333h85.333v-85.333zM896 725.334h-85.333v85.333h85.333v-85.333z" />
<glyph unicode="&#xe94e;" glyph-name="dot-interface-responsive" d="M986.667 938.667h-986.667v-853.333h426.667v-170.667h426.667v170.667h170.667v853.333h-37.333zM768 874.667c23.552 0 42.667-19.115 42.667-42.667s-19.115-42.667-42.667-42.667-42.667 19.115-42.667 42.667 19.115 42.667 42.667 42.667zM128 874.667h512c23.552 0 42.667-19.115 42.667-42.667s-19.115-42.667-42.667-42.667h-512c-23.552 0-42.667 19.115-42.667 42.667s19.115 42.667 42.667 42.667zM640-55.338c-23.552 0-42.667 19.115-42.667 42.667s19.115 42.667 42.667 42.667 42.667-19.115 42.667-42.667-19.115-42.667-42.667-42.667zM768 64.662h-256v488.235h256v-488.235zM938.667 170.667h-85.333v467.563h-426.667v-467.563h-341.333v554.667h853.333v-554.667zM896 789.334c-23.552 0-42.667 19.115-42.667 42.667s19.115 42.667 42.667 42.667 42.667-19.115 42.667-42.667-19.115-42.667-42.667-42.667z" />
<glyph unicode="&#xe94f;" glyph-name="dot-interface-rules" d="M704.448 895.446v43.221h-384.896v-43.221h-234.219v-980.779h853.333v980.779h-234.219zM853.333 42.667h-682.667v768h148.885v-64h384.896v64h148.885v-768zM256 619.99h513.323v-85.333h-513.323v85.333zM256 449.323h513.323v-85.333h-513.323v85.333zM256 278.656h513.323v-85.333h-513.323v85.333z" />
<glyph unicode="&#xe950;" glyph-name="dot-interface-settings" d="M1024 320.342v212.672h-99.221c-11.947 46.443-31.147 89.92-56.917 128.832l66.517 66.539-120.661 120.683-66.539-66.56c-38.699 25.643-81.92 44.779-128.085 56.725v99.435h-214.208v-99.435c-47.189-12.224-91.392-31.872-130.752-58.347l-63.851 63.872-120.661-120.683 64.896-64.896c-24.811-38.059-43.435-80.341-55.104-125.504h-99.413v-213.995h99.413c11.947-46.187 31.104-89.451 56.747-128.192l-66.517-66.517 120.661-120.661 66.539 66.517c38.805-25.707 82.197-44.885 128.491-56.832v-99.328h213.333v99.307c45.291 11.691 87.68 30.357 125.824 55.211l69.227-69.184 120.661 120.661-68.139 68.139c26.624 39.573 46.336 84.032 58.539 131.52h99.221zM512 85.334c-188.501 0-341.333 152.832-341.333 341.333 0 188.523 152.832 341.333 341.333 341.333 188.523 0 341.333-152.811 341.333-341.333 0-188.501-152.811-341.333-341.333-341.333zM512 618.667c-106.048 0-192-85.952-192-192s85.952-192 192-192 192 85.952 192 192-85.952 192-192 192zM512 320c-58.923 0-106.667 47.744-106.667 106.667 0 58.901 47.744 106.667 106.667 106.667s106.667-47.765 106.667-106.667c0-58.923-47.744-106.667-106.667-106.667z" />
<glyph unicode="&#xe951;" glyph-name="dot-interface-settings-availability" d="M404.907 938.667v-99.435c-47.189-12.224-91.392-31.851-130.752-58.347l-63.872 63.872-120.661-120.704 64.896-64.896c-24.811-38.037-43.435-80.341-55.125-125.504h-99.392v-213.995h99.392c11.968-46.165 31.104-89.493 56.747-128.171l-66.517-66.581 120.661-120.661 66.56 66.581c38.805-25.749 82.197-44.907 128.491-56.832v-99.328h86.656v171.669c-179.115 10.411-321.323 158.571-321.323 340.331 0 181.739 142.208 329.899 321.344 340.331v171.669h-87.104zM320 426.667c0-99.349 75.349-181.013 171.989-191.019v86.336c-49.323 9.387-86.656 52.608-86.656 104.683 0 52.011 37.333 95.275 86.656 104.619v86.315c-96.619-10.005-171.989-91.648-171.989-190.933zM736.213 298.667h128v128h-128v-128zM668.672 426.667h-128v-128h128v128zM864.213 234.667h-128v-128h128v128zM668.672 234.667h-128v-128h128v128zM810.88 682.667v85.333h128v-168.533h-398.208v-85.291h398.208v-514.176h-398.208v-85.333h483.541v938.667h-213.333v85.333h-85.333v-85.333h-184.875v-85.333h184.875v-85.333h85.333z" />
<glyph unicode="&#xe952;" glyph-name="dot-interface-settings-checkout" d="M404.907 938.667v-99.435c-47.189-12.224-91.392-31.851-130.752-58.347l-63.872 63.872-120.661-120.704 64.896-64.896c-24.811-38.037-43.435-80.341-55.125-125.504h-99.392v-213.995h99.392c11.968-46.165 31.104-89.493 56.747-128.171l-66.517-66.581 120.661-120.661 66.56 66.581c38.805-25.749 82.197-44.907 128.491-56.832v-99.328h86.656v171.669c-179.115 10.411-321.323 158.571-321.323 340.331 0 181.739 142.208 329.899 321.344 340.331v171.669h-87.104zM320 426.667c0-99.349 75.349-181.013 171.989-191.019v86.336c-49.323 9.387-86.656 52.608-86.656 104.683 0 52.011 37.333 95.275 86.656 104.619v86.315c-96.619-10.005-171.989-91.648-171.989-190.933zM1023.061 523.115c0 52.736-42.752 95.488-95.509 95.488-4.16 0-8.213-0.448-12.224-0.981h-44.224l-334.763 321.045h-3.883v-77.333l246.208-243.712h-246.229v-62.955h398.016v0.597c16.533-1.493 29.568-15.211 29.568-32.149 0-17.92-14.549-32.448-32.448-32.448h-395.136v-63.040h357.333l-90.667-449.856h-266.667v-63.104h266.688c0 0 51.883 3.669 62.549 50.325s93.205 466.603 93.205 466.603l-0.491 0.32c39.595 11.648 68.672 47.829 68.672 91.2zM672.021 333.334h63.104v-258.667h-63.104v258.667zM532.437 333.334h63.104v-258.667h-63.104v258.667z" />
<glyph unicode="&#xe953;" glyph-name="dot-interface-conditions" d="M705.003 806.336h-228.011v0.32h-63.659v-348.16h-94.827c-14.784 73.579-79.744 129.003-157.675 129.003-88.811 0-160.832-72-160.832-160.832s72-160.832 160.832-160.832c77.931 0 142.891 55.424 157.675 129.003h94.827v-357.483h293.739c17.173-70.379 80.448-122.667 156.075-122.667 88.853-0.021 160.853 71.979 160.853 160.811s-72 160.853-160.832 160.853c-80.149 0-146.368-58.688-158.635-135.36h-227.541v641.664h229.312c16.043-71.893 80.128-125.696 156.864-125.696 88.832 0 160.832 72.021 160.832 160.853s-72 160.853-160.832 160.853c-79.083 0-144.683-57.131-158.165-132.331z" />
<glyph unicode="&#xe954;" glyph-name="dot-interface-data-condition" d="M413.163 421.056l31.68 31.659-57.451 57.472-31.659-31.701c-18.432 12.203-38.997 21.312-60.971 27.029v47.36h-101.995v-47.36c-22.464-5.803-43.499-15.168-62.229-27.776l-30.4 30.4-57.472-57.429 30.912-30.912c-11.819-18.112-20.693-38.251-26.24-59.733h-47.339v-101.888h47.317c5.696-21.995 14.805-42.624 27.029-61.056l-31.68-31.68 57.451-57.408 31.68 31.659c18.475-12.224 39.125-21.376 61.163-27.072v-47.275h101.568v47.275c21.547 5.547 41.749 14.464 59.904 26.261l32.939-32.917 57.451 57.408-32.448 32.469c12.672 18.837 22.059 40.021 27.861 62.592h47.275v101.269h-47.275c-5.653 22.101-14.784 42.837-27.072 61.355zM243.755 225.536c-46.144 0-83.563 37.419-83.563 83.563s37.419 83.563 83.563 83.563 83.563-37.419 83.563-83.563-37.419-83.563-83.563-83.563zM146.667 817.664v38.677h426.88v-173.333h171.797v-156.245h83.285v210.901l-200.427 200.469h-564.907v-378.475h83.371zM858.965 378.070h-117.931v0.171h-32.939v-180.139h-49.067c-7.616 38.080-41.259 66.752-81.557 66.752-45.931 0-83.179-37.248-83.179-83.2s37.248-83.2 83.179-83.2c40.32 0 73.941 28.672 81.557 66.731h49.067v-184.939h151.979c8.875-36.416 41.6-63.467 80.725-63.467 45.952 0 83.2 37.227 83.2 83.179s-37.248 83.2-83.2 83.2c-41.451 0-75.712-30.336-82.048-69.995h-117.739v331.947h118.635c8.32-37.184 41.451-65.024 81.152-65.024 45.952 0 83.2 37.269 83.2 83.221 0 45.931-37.248 83.179-83.2 83.179-40.917 0.021-74.859-29.525-81.835-68.416z" />
<glyph unicode="&#xe955;" glyph-name="dot-interface-condition" d="M863.168 411.947c-80.149 0-146.368-58.688-158.635-135.36h-227.541v357.483h-158.485c-14.784 73.6-79.744 129.024-157.653 129.024-88.832 0-160.853-72-160.853-160.853s72-160.832 160.832-160.832c77.931 0 142.891 55.424 157.675 129.003h94.827v-357.483h293.739c17.173-70.379 80.448-122.667 156.075-122.667 88.832 0 160.832 72 160.832 160.832s-71.979 160.853-160.811 160.853z" />
<glyph unicode="&#xe956;" glyph-name="dot-interface-sms" d="M746.667 257.323v-86.656h-469.333v682.667h469.333v-234.667h85.333v320h-640v-1024h640v342.656h-85.333zM512 0.875c-23.552 0-42.667 19.115-42.667 42.667s19.115 42.667 42.667 42.667c23.573 0 42.667-19.115 42.667-42.667s-19.093-42.667-42.667-42.667zM618.667 554.688v-300.693l86.656 64.683h254.677v236.011z" />
<glyph unicode="&#xe957;" glyph-name="dot-interface-star" d="M512 901.334l-152.896-316.437-359.104-43.563 260.437-242.667-57.771-346.667 309.333 166.208 309.333-166.208-63.104 351.339 265.771 237.099-359.104 45.333z" />
<glyph unicode="&#xe958;" glyph-name="dot-interface-sync" d="M511.659 35.584c-172.395 0-318.315 111.659-370.453 266.453l94.784 85.696h-235.989v-213.333l78.955 71.381c70.912-169.301 237.696-288.448 432.704-288.448 246.101 0 447.872 189.419 467.755 430.4h-78.464c-19.627-197.717-186.389-352.149-389.291-352.149zM944.555 607.488c-70.784 169.515-237.696 288.875-432.896 288.875-246.101 0-447.872-189.397-467.755-430.379h78.485c19.627 197.717 186.389 352.128 389.291 352.128 172.565 0 318.635-111.872 370.624-266.88l-94.293-85.248h235.989v213.333l-79.445-71.829z" />
<glyph unicode="&#xe959;" glyph-name="dot-interface-fees" d="M0 746.667v-640h1024v640h-1024zM938.667 192h-618.667v106.667h-85.333v-106.667h-149.333v469.333h149.333v-106.667h85.333v106.667h618.667v-469.333zM234.667 490.667h85.333v-128h-85.333v128zM659.2 454.166c-26.091 11.904-42.091 20.096-47.957 24.597-5.888 4.48-8.789 9.6-8.789 15.275 0 5.291 2.283 9.728 6.933 13.291 4.629 3.563 12.011 5.355 22.229 5.355 19.712 0 43.115-6.229 70.229-18.645l24.021 60.523c-24.235 10.773-48.085 17.259-71.573 19.669v44.096h-63.339v-48.043c-14.379-3.733-26.837-9.387-37.12-17.323-19.456-14.933-29.184-35.776-29.184-62.507 0-14.293 2.261-26.667 6.805-37.099 4.587-10.453 11.584-19.712 21.035-27.776 9.451-8.085 23.68-16.405 42.603-25.003 20.885-9.387 33.728-15.595 38.571-18.645 4.821-3.072 8.341-6.059 10.517-9.024 2.176-2.987 3.285-6.464 3.285-10.432 0-6.336-2.709-11.52-8.128-15.552-5.44-4.032-13.952-6.059-25.6-6.059-13.504 0-28.309 2.176-44.437 6.464-16.149 4.288-31.68 10.283-46.656 17.963v-69.845c14.187-6.741 27.797-11.477 40.896-14.187 7.893-1.621 17.28-2.603 27.413-3.243v-42.987h63.339v47.424c6.421 1.728 12.651 3.712 18.389 6.315 17.195 7.723 30.357 18.603 39.488 32.533 9.152 13.952 13.717 29.931 13.717 47.915 0 19.584-4.885 35.84-14.635 48.725-9.728 12.907-27.072 24.981-52.053 36.224z" />
<glyph unicode="&#xe95a;" glyph-name="dot-form-text" d="M170.667 746.667h42.667v-640h-42.667v-64h170.667v64h-42.667v640h42.667v64h-170.667zM85.333 597.334h64.448v85.333h-149.781v-512h150.229v85.333h-64.896zM362.219 682.667v-85.333h576.448v-341.333h-576.896v-85.333h662.229v512z" />
<glyph unicode="&#xe95b;" glyph-name="dot-form-textarea" d="M341.333 234.667h-42.667v640h42.667v64h-170.667v-64h42.667v-640h-42.667v-64h170.667zM363.328 810.667v-85.333h575.339v-725.333h-853.333v725.333h62.677v85.333h-148.011v-896h1024v896z" />
<glyph unicode="&#xe95c;" glyph-name="dot-interface-theme" d="M0 938.667v-1024h1024v1024h-1024zM938.667 362.219h-384v491.115h384v-491.115zM469.333 853.334v-491.115h-384v491.115h384zM85.333-0v276.885h853.333v-276.885h-853.333z" />
<glyph unicode="&#xe95d;" glyph-name="dot-interface-timezone" d="M768 426.667c-141.376 0-256-114.624-256-256s114.624-256 256-256 256 114.624 256 256-114.624 256-256 256zM768-42.666c-117.824 0-213.333 95.509-213.333 213.333s95.509 213.333 213.333 213.333 213.333-95.509 213.333-213.333-95.509-213.333-213.333-213.333zM752 352h32v-32h-32v32zM586.667 186.667h32v-32h-32v32zM885.81 311.099l22.633-22.652-22.637-22.618-22.633 22.652 22.637 22.618zM651.958 32.004l-22.627 22.627 22.627 22.627 22.627-22.627-22.627-22.627zM651.091 310.203l22.627-22.627-22.642-22.642-22.627 22.627 22.642 22.642zM884.917 31.127l-22.627 22.627 22.627 22.627 22.627-22.627-22.627-22.627zM752 186.667v-197.333h32v165.333h165.333v32h-32zM554.987-68.736c0.363 0.021 0.683 0.107 1.045 0.149-0.576 0.512-1.109 1.152-1.685 1.664 0.192-0.576 0.427-1.216 0.64-1.813zM349.931 211.222c-4.587 9.877-6.805 15.445-6.805 15.445h110.080c12.715 71.872 49.344 135.296 101.461 182.037v119.296h161.408c2.048-13.547 3.563-27.307 4.651-41.216 15.467 2.304 31.168 3.883 47.275 3.883 11.584 0 22.976-0.683 34.219-1.877-0.917 13.184-2.112 26.283-3.712 39.211h131.307c5.781-27.989 8.853-56.96 8.853-86.656 0-0.107-0.021-0.192-0.021-0.299 30.464-19.264 57.429-43.392 79.765-71.488 3.328 23.509 5.589 47.339 5.589 71.787 0 268.288-206.4 488.235-469.035 510.080-0.107 0.043-0.192 0.128-0.299 0.192v-0.192c-14.080 1.152-28.288 1.899-42.667 1.899s-28.587-0.747-42.667-1.899v0.192c-0.107-0.064-0.192-0.149-0.299-0.213-262.635-21.845-469.035-241.771-469.035-510.059s206.379-488.235 469.035-510.059c0.107-0.085 0.192-0.171 0.299-0.235v0.213c14.080-1.173 28.288-1.92 42.667-1.92s28.587 0.747 42.667 1.92v-0.213c0.107 0.064 0.213 0.149 0.32 0.235-85.056 81.6-141.056 163.968-174.016 220.907-11.52 18.688-21.803 38.464-31.040 59.029zM902.293 613.334h-120.021c-21.376 83.307-57.685 158.72-105.451 221.611 100.629-42.197 181.461-121.941 225.472-221.611zM554.667 835.883c63.744-55.573 113.515-132.757 141.803-222.549h-141.803v222.549zM469.333 312h-153.237c-9.451 41.216-14.677 84.523-14.677 129.323 0 29.589 2.261 58.539 6.485 86.656h161.429v-215.979zM469.333 835.883v-222.549h-141.803c28.288 89.792 78.059 166.976 141.803 222.549zM347.179 834.944c-47.765-62.869-84.075-138.304-105.451-221.611h-120c43.989 99.669 124.821 179.413 225.451 221.611zM105.408 312c-12.971 40.811-20.075 84.224-20.075 129.344 0 29.696 3.072 58.667 8.853 86.656h131.285c-3.52-28.288-5.461-57.195-5.461-86.656 0-44.48 4.352-87.701 12.181-129.323h-126.784zM143.68 226.667h110.549c21.909-66.432 53.504-126.997 92.971-178.944-85.803 35.968-157.013 99.349-203.52 178.944z" />
<glyph unicode="&#xe95e;" glyph-name="dot-interface-user-permissions" d="M536.981 755.414c0-99.9-80.985-180.885-180.885-180.885s-180.885 80.985-180.885 180.885c0 99.9 80.985 180.885 180.885 180.885s180.885-80.985 180.885-180.885zM752.277 418.582l-81.173-167.957-190.571-23.104 138.219-128.789-30.656-183.979 164.181 88.213 164.16-88.213-33.472 186.432 141.035 125.845-190.571 24.064zM561.515 78.934l-197.461 184 272.256 33.024 23.168 47.957c-62.635 102.037-174.891 170.325-303.381 170.325-196.672 0-356.096-159.445-356.096-356.117v-243.456h534.144l27.371 164.267z" />
<glyph unicode="&#xe95f;" glyph-name="dot-interface-view-calendar" d="M810.453 938.667h-85.995v-222.677h85.995zM874.453 853.334v-137.344h1.109v-65.323h-215.104v202.667h-298.005v-137.344h1.109v-65.323h-215.125v65.323h1.323v137.344h-149.76v-938.667h1024v938.667h-149.547zM209.771-0h-124.437v106.667h124.437v-106.667zM209.771 192h-124.437v106.667h124.437v-106.667zM209.771 384h-124.437v130.133h124.437v-130.133zM469.333-0h-174.229v106.667h174.229v-106.667zM469.333 192h-174.229v106.667h174.229v-106.667zM469.333 384h-174.229v130.133h174.229v-130.133zM723.563-0h-168.896v106.667h168.896v-106.667zM723.563 192h-168.896v106.667h168.896v-106.667zM723.563 384h-168.896v130.133h168.896v-130.133zM938.667-0h-129.771v106.667h129.771v-106.667zM938.667 192h-129.771v106.667h129.771v-106.667zM938.667 384h-129.771v130.133h129.771v-130.133zM213.781 938.667h84.672v-222.677h-84.672v222.677z" />
<glyph unicode="&#xe960;" glyph-name="dot-interface-view-list" d="M0 725.334h128v-128h-128v128zM0 513.771h128v-128h-128v128zM0 296.875h128v-128h-128v128zM213.333 725.334h810.667v-128h-810.667v128zM213.333 513.771h810.667v-128h-810.667v128zM213.333 296.875h810.667v-128h-810.667v128z" />
<glyph unicode="&#xe961;" glyph-name="dot-interface-widgets" d="M1.323 937.344v-468.117h468.117v468.117h-468.117zM1.323-84.010h468.117v468.117h-468.117v-468.117zM554.56 384.107v-468.096h468.096v468.096h-468.096zM746.069 937.323l-276.629-276.587 276.608-276.629 276.608 276.608-276.587 276.608z" />
<glyph unicode="&#xe962;" glyph-name="dot-forum-status-approved" d="M729.643 619.136l-123.221-123.243 0.213-0.192-168.043-168.043-144.384 144.427-46.827-46.827 165.504-165.525-0.149-0.171 25.387-25.344 0.149 0.107 0.149-0.107 11.328 11.285 0.107-0.107 326.763 326.763zM512 938.667c-282.773 0-512-229.227-512-512s229.227-512 512-512 512 229.227 512 512-229.227 512-512 512zM512-0c-235.648 0-426.667 191.019-426.667 426.667s191.019 426.667 426.667 426.667 426.667-191.019 426.667-426.667-191.019-426.667-426.667-426.667z" />
<glyph unicode="&#xe963;" glyph-name="dot-forum-status-canceled" d="M512 938.667c-282.773 0-512-229.227-512-512s229.227-512 512-512 512 229.227 512 512-229.227 512-512 512zM85.333 426.667c0 235.648 191.019 426.667 426.667 426.667 103.467 0 198.251-36.843 272.107-98.069l-600.704-600.704c-61.227 73.856-98.069 168.64-98.069 272.107zM512-0c-101.461 0-194.539 35.563-267.776 94.699l599.723 599.701c59.157-73.195 94.72-166.272 94.72-267.733 0-235.648-191.019-426.667-426.667-426.667z" />
<glyph unicode="&#xe964;" glyph-name="dot-foum-status-pending" d="M512 938.667c-282.773 0-512-229.248-512-512 0-282.773 229.227-512 512-512s512 229.227 512 512c0 282.752-229.227 512-512 512zM512-0c-235.648 0-426.667 191.019-426.667 426.667s191.019 426.667 426.667 426.667 426.667-191.019 426.667-426.667-191.019-426.667-426.667-426.667zM480 789.334h64v-64h-64v64zM149.333 458.667h64v-64h-64v64zM747.528 707.482l45.248-45.261-45.261-45.248-45.248 45.261 45.261 45.248zM279.948 149.322l-45.242 45.267 45.267 45.242 45.242-45.267-45.267-45.242zM278.191 705.738l45.254-45.254-45.254-45.254-45.254 45.254 45.254 45.254zM745.805 147.574l-45.254 45.254 45.254 45.254 45.254-45.254-45.254-45.254zM810.667 458.667h-330.667v-394.667h64v330.667h330.667v64z" />
<glyph unicode="&#xe965;" glyph-name="dot-forum-status-rejected" d="M512 938.667c-282.773 0-512-229.227-512-512s229.227-512 512-512 512 229.227 512 512-229.227 512-512 512zM512-0c-235.648 0-426.667 191.019-426.667 426.667s191.019 426.667 426.667 426.667 426.667-191.019 426.667-426.667-191.019-426.667-426.667-426.667zM722.731 682.603l-210.731-210.709-210.709 210.709-45.227-45.269 210.688-210.688-210.688-210.688 45.291-45.227 210.645 210.645 210.667-210.645 45.269 45.227-210.667 210.688 210.667 210.688z" />
<glyph unicode="&#xe966;" glyph-name="dot-forum-reply-last" d="M0-84.373l0.939-0.96-0.939 1.323zM0.939-85.333l210.987 53.653-157.312 157.291zM752.338 823.296l113.754 113.754 157.289-157.289-113.754-113.754-157.289 157.289zM257.146 13.562l-157.304 157.304 607.178 607.178 157.304-157.304-607.178-607.178z" />
<glyph unicode="&#xe967;" glyph-name="dot-forum-reply" d="M335.061 611.136v87.509l-334.613-260.245 334.613-260.245v87.488l-222.123 172.757zM1023.552 318.422c0 132.523-107.477 240-240.021 240h-239.979v140.224l-334.613-260.245 334.635-260.245v140.267h303.616c66.261 0 120-53.76 120-120 0-15.467-3.157-30.144-8.512-43.733 40.128 42.88 64.875 100.352 64.875 163.733z" />
<glyph unicode="&#xe968;" glyph-name="dot-interface-locate" d="M1022.677 469.334h-86.144c-20.032 201.557-180.309 361.813-381.867 381.845v87.488h-85.333v-87.488c-201.557-20.032-361.813-180.288-381.845-381.845h-88.832v-85.333h88.832c20.032-201.557 180.288-361.835 381.845-381.845v-87.488h85.333v87.488c201.557 20.011 361.835 180.288 381.845 381.845h86.144v85.333zM554.667 88.278v39.723h-85.333v-39.723c-154.325 19.285-276.437 141.397-295.723 295.723h38.379v85.333h-38.379c19.285 154.325 141.397 276.437 295.723 295.723v-39.723h85.333v39.723c154.325-19.285 276.437-141.397 295.701-295.723h-41.045v-85.333h41.067c-19.285-154.325-141.397-276.437-295.723-295.723z" />
<glyph unicode="&#xe969;" glyph-name="dot-forum-topics" d="M0 811.563h128v-128h-128v128zM0 600h128v-128h-128v128zM0 383.104h128v-128h-128v128zM213.333 811.563h810.667v-128h-810.667v128zM213.333 600h810.667v-128h-810.667v128zM213.333 383.104h810.667v-128h-810.667v128zM0 169.771h128v-128h-128v128zM213.333 169.771h810.667v-128h-810.667v128z" />
<glyph unicode="&#xe96a;" glyph-name="dot-forum-topic-no-feature" d="M647.829 470.998l-286.016 294.592 93.312-312.192-73.579-69.845 280.64-295.808-89.024 310.72zM512 938.667c-282.773 0-512-229.227-512-512s229.227-512 512-512 512 229.227 512 512-229.227 512-512 512zM512-0c-101.461 0-194.539 35.563-267.776 94.699l150.464 150.464-58.752 61.909-152.512-152.512c-61.248 73.856-98.091 168.661-98.091 272.107 0 235.648 191.019 426.667 426.667 426.667 103.445 0 198.251-36.843 272.107-98.069l-148.608-148.608 59.328-61.333 149.12 149.12c59.157-73.237 94.72-166.315 94.72-267.776 0-235.648-191.019-426.667-426.667-426.667z" />
<glyph unicode="&#xe96b;" glyph-name="dot-forum-topic-reply-needed" d="M512 938.667l-512-1024h1024l-512 1024zM669.781 188.758h-207.445v-95.829l-228.608 177.792 228.608 177.813v-95.808h163.968c90.539 0 163.989-73.429 163.989-163.989 0-43.307-16.917-82.56-44.309-111.872 3.627 9.323 5.803 19.328 5.803 29.888-0.021 45.291-36.736 82.005-82.005 82.005z" />
<glyph unicode="&#xe96c;" glyph-name="dot-forum-topic-solved" d="M512 938.667c-282.773 0-512-229.227-512-512s229.227-512 512-512 512 229.227 512 512-229.227 512-512 512zM653.376 448.918l-203.52-203.52-0.107 0.107-11.328-11.307-0.149 0.149-0.149-0.149-25.387 25.365 0.149 0.171-165.525 165.525 46.827 46.827 144.384-144.405 168.021 168.021-0.192 0.192 123.221 123.243 46.976-46.976-123.221-123.243z" />
<glyph unicode="&#xe96d;" glyph-name="dot-forum-topic-unsolved" d="M901.333 853.334h-366.677v85.333h-411.989v-1024h130.667v554.667h285.333v-85.333h362.667l-106.667 234.667z" />
<glyph unicode="&#xe96e;" glyph-name="dot-payment-2checkout" d="M0 746.667v-640h1024v640h-1024zM721.003 363.286c-34.261 0-62.037 27.776-62.037 62.037s27.776 62.037 62.037 62.037c23.403 0 43.52-13.099 54.101-32.235 0.981-9.365 1.557-18.859 1.557-28.48 0-10.923-0.853-21.632-2.133-32.192-10.709-18.539-30.549-31.168-53.525-31.168zM512 161.323c-146.176 0-264.661 118.784-264.661 265.344s118.485 265.344 264.661 265.344c118.315 0 218.389-77.824 252.309-185.173-12.992 6.891-27.584 11.157-43.307 11.157-51.349 0-92.992-41.643-92.992-92.992s41.643-92.992 92.992-92.992c15.104 0 29.163 3.968 41.792 10.347-35.179-105.173-134.037-181.035-250.795-181.035zM443.989 440c6.656 11.328 11.008 43.669-23.339 65.323s-66.667-3.328-66.667-3.328l-26.667-24.661 19.989-16.661 20.672 16.661c0 0 18.005 20.672 40 4.672s4.672-42.667 4.672-42.667l-85.333-74.005v-29.333h123.328v29.333h-78.677c58.709 46.656 72.021 74.667 72.021 74.667zM559.147 484.758c15.595 0 29.696-6.037 40.448-15.68l0.128 0.192 23.125 24.363c-16.469 14.997-38.144 24.384-62.187 24.384-51.179 0-92.672-41.493-92.672-92.672s41.493-92.672 92.672-92.672c22.571 0 42.965 8.384 59.029 21.781l-22.336 22.016-0.128 0.171c-10.453-8.448-23.573-13.717-38.080-13.717-33.621 0-60.907 27.264-60.907 60.907s27.285 60.928 60.907 60.928z" />
<glyph unicode="&#xe96f;" glyph-name="dot-payment-amazon" d="M471.147 434.88c-2.667-20.885 9.899-26.667 24.064-22.229 19.627 5.76 19.499 45.333 19.499 45.333s-40.896-2.197-43.563-23.104zM111.168 434.88c-2.667-20.885 9.899-26.667 24.064-22.229 19.627 5.76 19.499 45.333 19.499 45.333s-40.896-2.197-43.563-23.104zM786.709 459.883c0-25.968-10.898-47.019-24.341-47.019s-24.341 21.051-24.341 47.019c0 25.968 10.898 47.019 24.341 47.019s24.341-21.051 24.341-47.019zM0 746.667v-640h1024v640h-1024zM496.043 509.099c-21.333 2.667-26.219-16-26.219-16h-15.616l-0.832-1.323-19.115 1.323c0 0 10.667 47.552 62.677 47.104 51.989-0.448 54.656-43.989 54.656-43.989v-76.437l11.584-14.251-25.344-24.448-20.459 16.896c0 0-11.008-11.797-24.768-15.616-0.043-0.021-0.021-0.064-0.064-0.085-0.213-0.085-0.597-0.149-0.853-0.213-0.405-0.107-0.811-0.213-1.216-0.299-8.875-2.027-32-2.048-40.213 3.328-50.667 44.437-5.781 80.427 22.229 87.552s41.771 10.219 41.771 10.219 3.115 23.573-18.219 26.24zM222.272 534.891h36.885v-18.219c0 0 12.437 17.771 36.885 18.219s33.771-24 33.771-24c3.541 13.248 24 24.448 40 24 41.344 0.896 36.885-56.448 36.885-56.448v-97.899h-36.885v95.232c0 11.115-4.011 26.667-18.667 26.667s-18.219-19.115-18.219-19.115v-102.784h-36.885v98.773c0 12.437-5.333 25.771-19.115 24.896s-17.771-20.885-17.771-20.885v-102.784h-36.885v154.347zM157.376 397.995c0 0-11.008-11.797-24.768-15.616-0.043-0.021-0.021-0.064-0.064-0.085-0.213-0.085-0.597-0.149-0.853-0.213-0.405-0.107-0.811-0.213-1.216-0.299-8.875-2.027-32-2.048-40.213 3.328-50.667 44.437-5.781 80.427 22.229 87.552s41.771 10.219 41.771 10.219 3.115 23.552-18.219 26.219-26.219-16-26.219-16h-15.616l-0.832-1.323-19.115 1.323c0 0 10.667 47.552 62.677 47.104s54.656-43.989 54.656-43.989v-76.437l11.563-14.251-25.344-24.448-20.437 16.917zM470.272 272.214c-196.437-16.896-274.667 92.437-274.667 92.437s135.339-60.459 231.68-58.667 198.528 32 198.528 32-79.104-61.333-155.541-65.771zM627.541 289.387c3.499 8.299 15.168 58.368 12.501 66.368-20.011 7.552-61.995 0-61.995 0 8.661 10.667 61.568 32.896 85.099 20.885 8.875-46.229-19.115-79.531-35.605-87.253zM682.709 384.875c0 0-52.011 22.336-104.661 0v33.835l0.149-0.171 34.624 56.619 19.904 28.395h-50.005v31.36h100.011v-31.36l-45.803-61.248-8.213-13.888c0.021 0 0.021 0 0.043 0.021 26.496-0.021 47.147-7.168 52.587-9.259 0.469-0.384 0.917-0.576 1.387-0.96 0.64-22.677-0.021-33.344-0.021-33.344zM762.368 380.886c-35.52 0-64.341 35.371-64.341 79.040 0 43.627 28.821 78.997 64.341 78.997s64.341-35.371 64.341-78.997c0-43.669-28.821-79.040-64.341-79.040zM956.715 380.886h-40v97.344c0 14.997-4.672 25.664-18.325 26.005s-18.325-20.992-18.325-20.992v-102.336h-40v154.027h40v-22.016c0 0 5.333 22.037 40 22.016 28.053-0.021 34.624-29.547 36.139-49.344h0.512v-104.704z" />
<glyph unicode="&#xe970;" glyph-name="dot-payment-american-express" d="M656.085 485.163v-37.291h106.283v-43.947h-106.283v-36.971h117.077l57.216 61.632-49.259 56.576zM129.835 410.859h64.576l-33.749 77.077zM0 746.667v-640h1024v640h-1024zM562.859 326.123h-46.997v151.019l-64.725-151.019h-50.859l-69.333 151.787v-151.787h-99.392l-18.901 43.157h-99.435l-17.259-43.157h-52.395l82.432 201.088h77.056l77.824-179.712v179.712h84.736l58.56-137.131 59.328 137.131h79.36v-201.088zM980.459 326.123h-60.885l-57.579 66.133-58.005-66.133h-197.227v201.088h197.248l57.344-65.301 60.544 65.301h58.581l-88.235-100.544 88.213-100.544z" />
<glyph unicode="&#xe971;" glyph-name="dot-payment-debit-card" d="M221.888 605.142h-14.187v-101.099h10.859c14.827 0 25.685 4.309 32.597 12.885 6.912 8.597 10.368 21.76 10.368 39.445 0 16.533-3.285 28.8-9.813 36.779s-16.469 11.989-29.824 11.989zM754.368 352.384h-14.165v-101.077h10.88c14.784 0 25.664 4.309 32.576 12.885 6.912 8.597 10.368 21.76 10.368 39.445 0 16.533-3.285 28.8-9.835 36.779s-16.448 11.968-29.824 11.968zM578.773 354.859h-9.643v-41.237h9.173c17.045 0 25.536 7.531 25.536 22.592 0 12.416-8.384 18.645-25.067 18.645zM414.187 340.267c-2.581 10.453-4.309 17.941-5.12 22.464-0.747-4.181-2.197-11.115-4.373-20.736s-7.019-28.587-14.507-56.896h38.379l-7.765 29.632c-1.813 6.592-4.011 15.104-6.613 25.536zM562.859 579.584c3.819 2.859 5.739 7.147 5.739 12.821 0 10.133-7.637 15.189-22.933 15.189h-13.717v-32.341h14.699c6.976 0.021 12.395 1.451 16.213 4.331zM571.925 520.96c0 5.995-2.048 10.603-6.080 13.824-4.075 3.2-10.005 4.8-17.728 4.8h-16.171v-37.888h17.173c15.211 0.021 22.805 6.421 22.805 19.264zM963.755 746.667h-963.755v-640h1024v640h-60.245zM653.504 644.502h49.003v-180.437h-49.003v180.437zM483.179 644.502h62.955c24.512 0 42.709-3.648 54.635-10.923 11.883-7.275 17.835-18.624 17.835-34.005 0-10.112-2.624-18.752-7.787-25.92-5.163-7.147-11.989-11.776-20.48-13.824v-1.237c11.179-2.965 19.307-7.893 24.32-14.784 5.035-6.912 7.552-15.893 7.552-26.923 0-16.384-6.165-29.269-18.453-38.699-12.288-9.408-29.035-14.144-50.283-14.144h-70.229v180.459zM344.448 644.502h107.136v-39.125h-58.389v-28.373h54.059v-39.125h-54.059v-34.069h58.389v-39.744h-107.136v180.437zM255.915 248.704c7.979 0 15.701 1.109 23.189 3.328 7.509 2.219 15.019 4.885 22.592 8v-41.216c-15.061-6.656-32.085-10.005-51.093-10.005-27.221 0-48.107 7.915-62.635 23.68-14.528 15.829-21.781 38.677-21.781 68.523 0 18.688 3.52 35.115 10.56 49.259s17.152 25.045 30.357 32.64c13.205 7.595 28.736 11.413 46.592 11.413 19.499 0 38.144-4.245 55.915-12.715l-14.933-38.379c-6.656 3.115-13.333 5.76-19.989 7.872-6.656 2.176-13.824 3.221-21.483 3.221-11.584 0-20.629-4.779-27.136-14.272-6.485-9.493-9.749-22.592-9.749-39.296-0.021-34.688 13.163-52.053 39.595-52.053zM287.232 488.491c-16.555-16.277-39.872-24.448-69.909-24.448h-58.368v180.437h62.464c28.949 0 51.307-7.403 67.072-22.208s23.616-36.203 23.616-64.192c0-30.080-8.277-53.291-24.875-69.589zM447.573 211.286l-8.875 33.835h-58.645l-9.109-33.835h-53.568l58.859 181.184h65.067l59.584-181.184h-53.312zM619.755 211.286l-38.251 65.664h-12.373v-65.664h-48.747v180.459h59.115c49.045 0 73.579-17.792 73.579-53.312 0-20.907-10.219-37.077-30.592-48.512l52.544-78.635h-55.275zM819.755 235.755c-16.576-16.32-39.872-24.448-69.909-24.448h-58.368v180.459h62.464c28.949 0 51.328-7.424 67.051-22.208 15.787-14.827 23.659-36.224 23.659-64.213-0.021-30.123-8.32-53.312-24.896-69.589zM865.045 604.651h-43.925v-140.587h-48.747v140.587h-44.075v39.851h136.747v-39.851z" />
<glyph unicode="&#xe972;" glyph-name="dot-payment-diners-club" d="M446.059 640.811c-118.272 0-214.144-95.872-214.144-214.144 0-118.251 95.872-214.144 214.144-214.144 118.293 0 214.123 95.872 214.123 214.144 0 118.251-95.829 214.144-214.123 214.144zM398.507 300.523c-51.029 19.264-87.381 68.395-87.381 126.144 0 57.771 36.352 106.901 87.381 126.144v-252.288zM493.632 300.523v252.267c51.008-19.243 87.339-68.373 87.339-126.144 0-57.728-36.331-106.859-87.339-126.123zM963.755 746.667h-963.755v-640h1024v640h-60.245zM580.245 172.096v-0.149h-148.245v0.725c-133.781 7.68-240 118.293-240 253.995 0 137.685 109.333 249.557 245.845 254.251v0.256h5.035c1.301 0.021 2.539 0.192 3.819 0.192 1.301 0 2.539-0.171 3.819-0.192h122.944c1.28 0.021 2.517 0.192 3.819 0.192s2.539-0.171 3.84-0.192h4.992v-0.256c136.555-4.672 245.888-116.544 245.888-254.251 0-139.669-112.448-252.949-251.755-254.571z" />
<glyph unicode="&#xe973;" glyph-name="dot-payment-discover" d="M65.984 469.27h-11.989v-85.312h9.173c12.501 0 21.675 3.627 27.499 10.88s8.747 18.347 8.747 33.28c0 13.952-2.752 24.32-8.277 31.040s-13.909 10.112-25.152 10.112zM929.899 471.339h-8.128v-34.795h7.701c14.379 0 21.568 6.357 21.568 19.072 0 10.475-7.040 15.723-21.141 15.723zM0 106.667h1024v640h-1024v-640zM880.619 502.486h49.899c41.387 0 62.080-14.997 62.080-44.992 0-17.643-8.597-31.296-25.835-40.939l44.373-66.347h-46.656l-32.299 55.403h-10.411v-55.403h-41.152v152.277zM772.075 502.486h90.411v-33.024h-49.28v-23.957h45.632v-33.024h-45.611v-28.736h49.28v-33.536h-90.411v152.277zM662.4 502.486l20.715-77.184c4.309-17.152 6.656-29.099 7.083-35.84 0.491 4.885 1.451 10.965 2.923 18.24 1.451 7.296 2.752 13.013 3.883 17.195l21.12 77.611h46.037l-49.877-152.277h-48.469l-49.664 152.277h46.251zM474.88 470.742c2.688 5.184 5.781 10.027 9.621 14.080 9.28 9.792 21.696 15.893 37.099 18.517 6.165 1.536 12.523 2.603 19.157 2.603 9.557 0 18.624-1.963 27.115-5.056 10.795-3.264 19.925-8.405 26.987-15.893 0.469-0.491 0.789-1.173 1.259-1.685 14.72-14.4 23.915-34.411 23.915-56.64 0-22.123-9.131-42.112-23.744-56.491-0.533-0.619-0.939-1.408-1.515-2.048-8-8.491-18.624-13.952-31.36-17.045-7.211-2.176-14.699-3.712-22.656-3.712-5.803 0-11.456 0.704-16.917 1.92-16.341 2.368-29.483 8.661-39.253 18.923-4.011 4.245-7.168 9.301-9.941 14.741-8.299 12.544-13.184 27.541-13.184 43.691 0.021 16.341 4.971 31.488 13.419 44.096zM344.491 467.499c5.931 11.947 14.485 21.12 25.621 27.541 11.136 6.443 24.256 9.643 39.317 9.643 16.448 0 32.192-3.584 47.189-10.731l-12.608-32.405c-5.632 2.645-11.243 4.864-16.875 6.656s-11.669 2.709-18.133 2.709c-9.792 0-17.408-4.011-22.912-12.011-5.483-8.043-8.235-19.093-8.235-33.195 0-29.312 11.136-43.968 33.429-43.968 6.741 0 13.269 0.96 19.584 2.837 6.336 1.877 12.693 4.117 19.072 6.741v-34.795c-12.715-5.632-27.093-8.427-43.115-8.427-22.976 0-40.597 6.656-52.864 20.011-12.267 13.333-18.389 32.576-18.389 57.792 0 15.808 2.987 29.653 8.917 41.6zM219.541 394.368c7.851-4.032 16.021-7.168 24.469-9.408 8.469-2.283 16.256-3.413 23.339-3.413 6.123 0 10.603 1.088 13.44 3.2 2.859 2.091 4.267 4.843 4.267 8.171 0 2.091-0.555 3.925-1.707 5.461-1.152 1.579-3.008 3.115-5.525 4.757-2.539 1.579-9.301 4.843-20.267 9.771-9.92 4.523-17.365 8.896-22.336 13.12s-8.64 9.109-11.051 14.592-3.605 11.989-3.605 19.477c0 14.016 5.099 24.96 15.317 32.811s24.256 11.776 42.091 11.776c15.765 0 31.851-3.648 48.235-10.944l-12.608-31.765c-14.229 6.528-26.517 9.792-36.885 9.792-5.333 0-9.237-0.939-11.669-2.816-2.411-1.877-3.648-4.203-3.648-6.976 0-2.987 1.536-5.675 4.651-8.021 3.093-2.347 11.477-6.656 25.152-12.907 13.12-5.888 22.251-12.245 27.349-19.008 5.099-6.784 7.637-15.317 7.637-25.579 0-9.451-2.389-17.835-7.189-25.173s-11.691-12.992-20.736-17.088c-9.024-4.032-19.605-6.080-31.765-6.080-10.133 0-18.645 0.704-25.515 2.133s-14.016 3.925-21.461 7.467v36.651zM160.896 502.486h41.344v-152.277h-41.344v152.277zM12.864 502.486h52.715c24.448 0 43.307-6.251 56.619-18.752 13.291-12.501 19.947-30.571 19.947-54.165 0-25.408-6.997-44.992-20.971-58.731-13.995-13.76-33.664-20.629-59.029-20.629h-49.28v152.277z" />
<glyph unicode="&#xe974;" glyph-name="dot-payment-jcb" d="M409.643 429.398c0-44.011 35.712-79.68 79.723-79.68h143.253v30.272c0 0-23.957-13.205-42.048-13.205h-56.384c-27.733 7.467-48.277 32.491-48.277 62.613 0 30.677 21.291 56.235 49.856 63.083h49.408c9.749 0 47.424-14.187 47.424-14.187v30.805h-143.253c-43.989 0-79.701-35.691-79.701-79.701zM312.555 509.334h-58.112v-90.859c0-29.909-23.637-54.144-52.757-54.144-11.883 0-22.528 4.267-31.36 11.072-1.557 1.493-17.685 17.536-25.515 36.139-26.069 0-38.165 0-38.165 0s20.864-33.451 32.128-43.797c0.384-0.363 0.896-0.469 1.301-0.768 6.144-6.315 12.757-12.16 20.139-17.131 0 0 1.024-0.256 2.773-0.64h116.757c1.365 0.256 2.624 0.384 3.989 0.64 29.589 20.544 49.195 55.019 49.195 94.4 0 0.832-0.149 1.6-0.171 2.411h0.171v62.677h-20.373zM963.755 746.667h-963.755v-640h1024v640h-60.245zM353.28 247.382c0-47.851-38.784-86.656-86.635-86.656-0.491 0-0.96 0.149-1.451 0.149h-161.344v461.355h0.363c1.899 39.061 33.877 70.229 73.408 70.229h175.68v-445.077zM650.155 247.574c0-47.872-38.784-86.656-86.656-86.656-1.195 0-2.283 0.299-3.456 0.363v-0.405h-162.752v461.355h0.363c1.899 39.061 33.877 70.229 73.408 70.229h66.688v0.192h112.405v-445.077zM944.405 247.382c0-47.851-38.784-86.656-86.656-86.656-1.451 0-2.816 0.363-4.245 0.448v-0.299h-162.795v461.355h0.384c1.877 39.061 33.877 70.229 73.408 70.229h179.904v-445.077zM898.091 509.206h-187.285v-159.701h180.032c0.619-0.064 1.259-0.192 1.899-0.192s1.28 0.107 1.92 0.192h0.427v0.043c0.363 0.043 0.725 0.064 1.088 0.107 0.875-0.043 1.664-0.341 2.539-0.341 23.808 0 43.115 19.307 43.115 43.115 0 21.44-15.68 39.083-36.16 42.411 16.917 3.669 29.632 18.667 29.632 36.715 0 20.608-16.619 37.269-37.163 37.547v0.107zM777.301 491.606h62.123c14.592 0 26.389-11.819 26.389-26.411 0-14.571-11.819-26.411-26.389-26.411h-62.123v52.821zM777.301 421.782h62.123c16.192 0 29.333-13.141 29.333-29.355 0-16.192-13.141-29.312-29.333-29.312h-62.123v58.667z" />
<glyph unicode="&#xe975;" glyph-name="dot-payment-mastercard" d="M470.549 443.008c0 0-4.459-4.843-6.315-17.088h36.907c0.64 4.032 1.237 11.968-3.072 17.088-15.253 12.992-27.52 0-27.52 0zM732.629 393.408c0 0-4.843-11.541 7.808-18.219 12.651-6.656 26.731 12.971 27.477 23.424l0.768 7.445h-13.76c0.021 0-16.341 0.363-22.293-12.651zM218.133 394.304c0 0-4.843-11.52 7.808-18.219 12.629-6.677 26.709 12.949 27.499 23.381l0.789 7.467h-13.781c0 0-16.363 0.384-22.315-12.629zM919.552 444.864c-16.853-1.088-21.909-9.685-26.944-27.093-0.277-2.027-4.416-34.688 13.248-36.459 18.048-1.877 27.051 24.768 27.264 34.261 0.576 6.485 1.472 30.251-13.568 29.291zM963.755 746.667h-963.755v-640h1024v640h-60.245zM142.293 353.046l14.293 108.181-36.971-108.181h-23.424l-4.821 105.195-16.725-105.195h-31.979l23.787 149.44h47.957l2.56-89.941 32.384 89.941h46.848l-21.568-149.44h-32.341zM248.619 353.046l1.28 12.181c-12.864-9.387-15.765-12.907-31.019-14.784-30.123-2.453-32.107 25.749-32.256 29.056 0 0.043 0 0.085 0 0.128 0 0.149-0.021 0.512-0.021 0.512h0.021c-0.32 4.757-0.171 14.912 5.504 26.795 9.621 17.003 28.16 20.843 37.163 21.675v0.256h27.2l0.704 6.677c1.045 10.133-10.411 13.76-24.533 14.144-14.144 0.363-28.992-7.083-28.992-7.083s1.856 11.904 1.856 23.061c10.411 10.048 36.8 18.965 61.717 9.664 17.813-6.656 19.115-29.696 18.453-42.368h0.128l-0.192-1.792c-0.299-4.117-0.768-6.763-0.768-6.763l-7.979-71.36h-28.267zM337.472 427.755c0.427-0.235 1.216-0.811 1.707-1.109 0.085-0.043 0.149-0.043 0.235-0.085 7.253-3.925 12.181-7.317 15.509-9.856 0.363 0 0.747 0.213 1.131-0.085 1.109-0.832 2.432-2.304 3.733-4.053 0.128-0.128 0.491-0.469 0.491-0.469l-0.021-0.021c5.077-7.104 9.856-20.907 3.221-40.789-4.971-14.933-19.307-19.477-30.485-20.779v-0.213h-1.557c-7.317-0.683-12.928 0-12.928 0h-13.376v0.341c-11.989 0.747-20.821 2.411-20.821 2.411s-0.384 1.131 1.493 28.629c10.048-4.352 19.691-5.653 26.005-5.931h15.616c7.808 0 10.411 13.376 5.568 17.835-4.843 4.48-21.931 14.485-21.931 14.485l0.213 0.341c-11.008 8.725-24.405 30.165-10.645 48.747 10.368 13.973 25.963 17.28 34.581 18.005v0.213h3.179c1.856 0.043 3.136 0 3.136 0h31.211l-5.568-28.245h-29.739c-13.355-0.021-6.293-15.637 0.043-19.371zM404.757 383.168c0 0 5.568-10.411 20.437-3.733 0 0-1.941-16.32-8.981-24.512h0.021c0 0-0.96-1.344-3.243-2.795-0.405-0.299-0.832-0.448-1.259-0.64-3.861-2.069-10.517-3.733-21.035-1.493-0.085 0.021-0.171 0.043-0.256 0.043-0.491 0.128-0.896 0.149-1.387 0.277-0.128 0.021-0.128 0.064-0.256 0.107-5.099 0.981-10.261 3.285-13.397 8.597-5.824 9.813-3.435 34.901-2.411 43.477l-0.192 0.021 16.725 90.688h31.979l-3.413-19.691h15.317l-4.459-28.992h-15.893l-6.208-35.797v-0.043l-0.896-5.205c-1.067-6.421-2.453-16.789-1.195-20.309zM526.677 401.75h-64.853c0.363-6.315 2.069-12.565 6.208-18.091 1.749-1.621 18.155-15.403 56.043 0.32-6.315-25.728-7.061-30.933-7.061-30.933s-29.931-10.155-57.216-0.597c-0.235 0.064-0.533 0.192-0.832 0.277-0.384 0.128-0.768 0.192-1.131 0.341-0.064 0.107-0.064 0.192-0.107 0.299-0.96 0.427-1.771 0.661-3.051 1.579-15.872 11.136-28.736 27.883-23.147 70.997 3.989 30.933 25.941 44.245 38.123 49.365l-0.213 0.085c0 0 0.427 0.213 1.109 0.491 1.067 0.448 3.051 1.152 5.419 1.813 0.256 0.064 0.256 0.064 0.448 0.128 0.405 0.107 0.725 0.213 1.173 0.32 0.021 0 0.235 0.064 0.235 0.064v-0.021c9.536 2.219 25.579 2.944 39.168-11.371 20.843-21.952 9.685-65.067 9.685-65.067zM570.475 413.867v0l-9.088-63.893h-31.723l20.821 125.376h28.779l-2.368-16.64c5.632 8.171 17.963 22.165 32.341 14.016l-12.331-32.725 0.021-0.021c-5.931 1.173-17.067-0.597-26.453-26.112zM685.419 353.046c0 0-34.197-14.507-56.491 1.877-16.448 12.032-23.104 27.307-25.536 38.827-0.661 1.92-1.195 4.288-1.237 8-0.384 23.403-3.328 59.093 28.245 88.469 31.595 29.355 78.080 9.301 78.080 9.301l-4.843-35.691c0 0-20.843 16.363-37.931 8.917-17.045-7.403-31.509-27.413-32.299-51.499-0.256-6.507 0.149-28.288 15.552-37.717 18.219-11.157 36.821-0.384 41.28 3.328-4.075-28.992-4.821-33.813-4.821-33.813zM763.115 352.15l1.259 12.16c-12.864-9.365-15.744-12.907-30.997-14.763-30.101-2.432-32.107 25.749-32.256 29.056 0 0.043 0 0.085 0 0.128 0 0.128-0.043 0.512-0.043 0.512h0.043c-0.341 4.757-0.192 14.912 5.483 26.795 9.621 17.003 28.16 20.821 37.184 21.675v0.256h27.2l0.683 6.699c1.045 10.112-10.411 13.76-24.533 14.123s-28.992-7.061-28.992-7.061 1.877 11.904 1.877 23.040c10.389 10.048 36.8 18.965 61.717 9.664 17.813-6.656 19.115-29.696 18.432-42.368h0.149l-0.192-1.792c-0.299-4.117-0.768-6.763-0.768-6.763l-7.957-71.36h-28.288zM834.795 413.867v0l-9.088-63.893h-31.723l20.821 125.376h28.779l-2.368-16.64c5.632 8.171 17.963 22.165 32.341 14.016l-12.331-32.725 0.021-0.021c-5.931 1.173-17.088-0.597-26.453-26.112zM956.8 349.974h-30.848l1.579 11.328c-2.155-1.429-19.051-20.16-45.056-9.003-17.216 7.36-22.357 24.939-23.936 36.139l-0.235-0.085c0 0-0.277 2.411-0.427 6.421-0.107 2.091-0.107 3.584-0.107 3.584h0.021c-0.256 19.051 2.731 59.755 31.723 72.128 38.272 16.363 51.627-11.328 51.627-11.371l5.973 42.965h34.219l-24.533-152.107z" />
<glyph unicode="&#xe976;" glyph-name="dot-payment-paypal" d="M290.005 385.494c-0.96-10.219 4.992-13.632 15.808-13.867 5.397 0.085 22.336 1.579 31.531 16.875 4.992 6.997 4.864 22.101 4.864 22.101l0.064 0.149c-1.813-0.341-3.563-0.725-5.589-0.896-19.691-1.685-42.347-1.003-46.677-24.363zM183.552 494.614c-16.085 0.811-22.101-5.845-24.405-11.264l-1.451-6.571v-0.021l-4.928-22.208c0-0.085-0.405-6.912 0.917-8.448 2.048-2.731 6.272-6.165 15.637-6.165 16.896 0 31.104 6.656 37.781 20.011s3.115 33.344-23.552 34.667zM759.339 385.494c-0.96-10.219 4.992-13.632 15.787-13.867 5.419 0.085 22.357 1.579 31.552 16.875 4.992 6.997 4.864 22.101 4.864 22.101l0.064 0.149c-1.792-0.341-3.563-0.725-5.589-0.896-19.691-1.685-42.347-1.003-46.677-24.363zM653.333 494.614c-16.107 0.811-22.101-5.845-24.427-11.264l-1.451-6.571v-0.021l-4.907-22.208c0-0.085-0.427-6.912 0.917-8.448 2.069-2.731 6.293-6.165 15.637-6.165 16.896 0 31.104 6.656 37.781 20.011s3.115 33.344-23.552 34.667zM0 746.667v-640h1024v640h-1024zM213.333 415.062c-18.453-6.379-53.205-11.52-66.645-13.333-5.696-0.789-7.019-6.251-7.061-6.464l-11.179-50.389h-49.771l45.781 184.427h68.437c0 0 50.219 3.563 64.448-33.771s-20.907-72.448-44.011-80.469zM392.661 448.512c-5.333-32-24-103.659-24-103.659h-36.416v14.677c-34.069-15.339-37.995-14.933-52.587-14.677s-34.325 4.672-33.003 37.995c1.323 33.323 34.325 42.325 57.664 46.997 22.784 4.565 41.472 5.632 42.347 5.675 6.997 8.619-1.344 15.872-1.344 15.872s-21.995 13.12-48.661 3.456-25.344-6.336-25.344-6.336 3.328 29.333 24.661 36.672 64 0 64 0 38.016-4.672 32.683-36.672zM441.344 281.302h-43.563l29.333 63.552-22.656 137.323h43.541l15.104-80.427 0.299-1.877 47.253 83.627 49.771-1.323-101.248-170.624-17.835-30.251zM683.115 415.062c-18.432-6.379-53.184-11.52-66.645-13.333-5.696-0.789-7.019-6.251-7.061-6.464l-11.179-50.389h-49.771l45.781 184.427h68.437c0 0 50.219 3.563 64.448-33.771s-20.907-72.448-44.011-80.469zM861.995 448.512c-5.333-32-24-103.659-24-103.659h-36.416v14.677c-34.069-15.339-37.973-14.933-52.587-14.677s-34.325 4.672-33.003 37.995c1.323 33.323 34.325 42.325 57.664 46.997 22.784 4.565 41.472 5.632 42.325 5.675 6.997 8.619-1.323 15.872-1.323 15.872s-21.995 13.12-48.661 3.456-25.344-6.336-25.344-6.336 3.328 29.333 24.661 36.672 64 0 64 0 38.016-4.672 32.683-36.672zM907.989 344.854h-45.483l40.149 179.989h42.667l-37.333-179.989z" />
<glyph unicode="&#xe977;" glyph-name="dot-payment-visa" d="M799.232 386.518h58.475l-20.672 102.869zM963.755 746.667h-963.755v-640h1024v640h-60.245zM219.755 292.587l-48.789 184.491c-6.379 20.608-27.883 70.933-87.637 75.669 0 11.179 0 11.179 0 11.179l106.603-0.747h38.016l34.283-184.128 72.32 184.128h73.045l-114.069-270.613h-73.771zM379.307 292.587l57.408 270.613h68.587l-58.155-270.613h-67.84zM649.877 305.664c-0.192-0.085-0.341-0.107-0.512-0.213-6.187-4.885-13.909-9.344-24.043-12.885-64.107-22.379-129.728 12.672-129.728 12.672l14.912 59.648c0 0 37.291-32.064 85.739-19.371 48.448 12.672 14.891 42.475 14.891 42.475l-23.851 17.152c0 0-52.907 32.043-55.915 54.421-2.987 22.357-5.973 57.408 45.461 91.691s129.728 5.973 129.728 5.973l-15.659-57.408c0 0-81.28 37.696-93.184-11.925 0.747-11.179 11.179-23.104 64.853-49.216 53.696-26.091 37.952-108.715-12.693-133.013zM876.565 292.587l-9.152 45.483h-85.973l-16.704-45.483h-73.813l115.563 270.613h76.8l57.387-270.613h-64.107z" />
<glyph unicode="&#xe978;" glyph-name="dot-social-android" d="M641.493 777.451l0.192 0.043 78.891 124.843-0.299 0.149c2.155 3.392 3.712 7.189 3.712 11.499 0 12.139-9.856 21.995-21.995 21.995-8.811 0-16.299-5.269-19.819-12.757l-0.085 0.043-80.832-126.976 0.064-0.128c-27.861 10.197-57.899 15.829-89.323 15.829-31.040 0-60.715-5.547-88.32-15.488l0.107 0.171-85.099 131.456-0.128-0.085c-4.032 4.757-9.835 7.957-16.555 7.957-12.139 0-21.995-9.856-21.995-21.995 0-4.416 1.621-8.277 3.861-11.733l-0.299-0.213 77.696-125.163 0.128-0.021c-66.219-38.421-114.027-105.067-126.933-183.531h515.093c-12.992 78.891-61.269 145.792-128.064 184.107zM429.333 677.995h-45.333v45.333h45.333v-45.333zM642.005 677.995h-45.333v45.333h45.333v-45.333zM876.459 593.323c-26.133 0-48.896-13.76-61.867-34.304v-268.352c12.971-20.587 35.755-34.325 61.867-34.325s48.896 13.76 61.867 34.325v268.352c-12.971 20.565-35.733 34.304-61.867 34.304zM149.333 593.323c-26.133 0-48.896-13.76-61.867-34.304v-268.352c12.971-20.587 35.755-34.325 61.867-34.325s48.896 13.76 61.867 34.325v268.352c-12.971 20.565-35.733 34.304-61.867 34.304zM260.437 173.334h0.939c-0.405-3.093-0.939-6.144-0.939-9.344 0-40.021 32.448-72.448 72.448-72.448 1.685 0 3.243 0.384 4.885 0.491v-0.491h5.696v-140.373c12.971-20.587 35.755-34.325 61.867-34.325s48.896 13.76 61.867 34.325v140.373h91.371v-140.373c12.971-20.587 35.755-34.325 61.867-34.325s48.896 13.76 61.867 34.325v140.373h8.789c40 0 72.448 32.448 72.448 72.448 0 3.179-0.533 6.251-0.939 9.344h0.939v376.896h-503.104v-376.896z" />
<glyph unicode="&#xe979;" glyph-name="dot-social-drupal" d="M736.789 741.334l0.704 0.128c0 0-2.005 0.981-4.928 2.432-11.477 6.635-23.339 12.672-35.456 18.24-51.2 26.987-136.832 74.88-170.176 109.931-48.896 51.456-56.021 65.365-56.021 65.365s-6.549-56.96-21.483-80.32c-14.933-23.339-52.821-62.549-123.072-94.741-2.88-1.323-5.205-2.688-7.339-4.032-148.139-71.787-250.581-223.189-250.581-398.912 0-244.949 198.592-443.541 443.584-443.541 244.949 0 443.541 198.592 443.541 443.541 0 162.816-88 304.768-218.773 381.909zM698.709-13.013c-30.805-13.056-94.315-29.867-154.091-21.461s-77.504 36.416-77.504 36.416-11.221 21.483 18.667 23.36c13.056-2.816 44.267-28.949 93.589-28.949 49.301 0 94.123 12.139 112.789 19.605s32.661 23.36 44.821 9.344c12.139-14.037-7.467-25.259-38.272-38.315zM554.901 88.15c0 0 10.667 21.867 37.781 37.013l0.981 0.96 1.856 0.576c9.813 5.077 21.803 8.939 36.053 10.923l2.667 0.811 1.216-0.32c2.773 0.32 5.184 0.939 8.149 1.088 66.304 2.795 70.016-51.072 70.016-51.072s-8.405-31.467-24.277 0c-1.536 3.093-2.944 5.717-4.352 8.32-4.352 8.235-21.845 14.72-43.243 15.637-21.483 0.917-48.576-16.811-48.576-16.811s-16.789-20.523-29.867-21.141c-13.077-0.597-8.405 14.016-8.405 14.016zM799.552 104.64c-60.715 33.6-82.197 93.376-138.219 107.392-3.755 0-38.699-7.765-81.259-36.416s-87.765-54.165-167.147-80.341c-79.403-26.155-184.896 20.565-165.291 120.448 38.272 169.003 211.051 131.669 211.051 131.669 27.221-3.157 64.448-24.277 111.147-58.837 38.784-28.736 75.947-44.352 87.509-48.875 0.277-0.085 22.955-6.016 65.621 21.803 42.965 28.011 98.987 65.365 116.736 70.037 17.728 4.651 82.155 0.939 72.832-78.443-9.323-79.339-52.267-182.059-112.981-148.437z" />
<glyph unicode="&#xe97a;" glyph-name="dot-social-facebook" d="M695.040 600.086h-107.904v110.976c0 39.979 28.736 47.445 44.245 48.555h117.611v177.28h-195.008c0 0-178.027-7.701-178.027-160.32v-176.491h-104.811v-174.955h104.832v-508.693h211.179v508.693h144.128l21.589 174.955h-57.835z" />
<glyph unicode="&#xe97b;" glyph-name="dot-social-google" d="M898.923 534.699h-386.923v-163.819h327.829c-26.581-157.248-163.029-277.099-327.829-277.099-183.872 0-332.864 148.949-332.864 332.885 0 183.808 148.992 332.885 332.864 332.885 82.624 0 157.867-30.507 216.043-80.384l-0.043 0.533 122.091 120.917c-89.6 81.28-207.637 131.477-338.091 131.477-279.125 0-505.408-226.325-505.408-505.408s226.283-505.451 505.408-505.451 505.408 226.368 505.408 505.451c0 37.099-4.288 73.195-11.883 108.011h-106.603z" />
<glyph unicode="&#xe97c;" glyph-name="dot-social-ios" d="M2.475 556.95h80.085v-401.835h-80.085v401.835zM2.475 696.043h80.085v-82.901h-80.085v82.901zM373.461 696.043c-129.195 0-233.941-104.747-233.941-233.941v-68.48h0.235c-0.021-1.536-0.235-3.051-0.235-4.587 0-129.195 104.747-233.941 233.941-233.941 123.733 0 224.768 96.171 233.109 217.792h0.832v89.216c0.021 129.195-104.747 233.941-233.941 233.941zM512.427 344.79l-0.576-0.171c-5.781-68.373-63.040-122.091-132.907-122.091-58.197 0-107.563 37.312-125.803 89.28-2.688 5.504-5.141 11.563-7.061 18.923-14.315 55.467-11.989 107.499-7.552 141.504 0 0.043 0 0.085 0 0.128 3.413 53.099 17.131 78.037 17.131 78.037l0.384-0.427c20.011 48.491 67.2 82.859 122.901 82.859 69.397 0 126.379-52.949 132.843-120.661 0-0.043 0-0.064 0.021-0.107 12.011-101.099 0.619-167.275 0.619-167.275zM1010.944 365.867c-0.021 0.064-0.128 0.128-0.149 0.192-17.515 47.552-62.272 76.971-167.189 102.827-133.013 32.789-122.688 132.075-31.851 156.437 90.859 24.341 186.411-62.763 186.411-62.763v100.245c0 0-210.752 141.419-325.973-43.093-53.845-110.4 3.413-205.952 128.576-228.587l-0.299-0.171c0 0 123.691-11.989 123.691-105.643 0-49.515-41.365-62.272-80.384-63.403-52.907 1.259-96.512 23.595-107.093 29.504l-1.323 0.747c-0.427 0.235-1.173 0.661-1.173 0.661v-0.021l-82.24 46.528v-118.016c0 0 180.437-89.92 290.027-8.427s76.565 176.363 68.971 192.981z" />
<glyph unicode="&#xe97d;" glyph-name="dot-social-joomla" d="M400.576 435.734l226.944 226.965c0 0 46.208 47.552 110.080 1.344s14.933-110.080 0-126.4c12.224-14.933 99.2-101.909 99.2-101.909s100.928 72.021 66.795 228.309c0 0.021 0 0.043-0.043 0.064 67.179 9.173 118.955 66.603 118.955 136.299 0 76.053-61.632 137.707-137.685 137.707-68.8 0-125.717-50.539-135.893-116.501l-0.085 0.021c0 0-115.904 55.787-253.141-85.568-137.259-141.333-193.024-200.491-193.024-200.491l97.899-99.84zM102.528 667.776v-0.064c0 0-40.341-119.189 64.299-225.195s226.219-223.573 226.219-223.573l97.237 97.216-226.56 236.864c-12.757 13.333-18.219 31.083-18.88 33.323-4.779 22.677-5.248 59.648 32.085 84.523 57.088 38.059 115.499-16.32 115.499-16.32l44.16 44.949 0.683-0.107 52.992 55.744c0 0-69.675 95.765-215.573 69.632-0.021 0-0.021-0.021-0.043-0.021-11.52 64.405-67.712 113.365-135.445 113.365-76.053 0-137.728-61.653-137.728-137.707 0-63.36 42.837-116.565 101.056-132.629zM906.219 188.843c0 0.021 0 0.043 0 0.064 34.069 84.779-43.584 196.565-43.584 196.565l-243.264 243.243-104.64-100.565c0 0 158.293-156.288 222.869-222.208 64.533-65.899 0-127.061 0-127.061-63.872-48.917-118.912 11.797-118.912 11.797l-103.957-101.483c122.837-116.053 234.923-64.107 235.179-64 12.885-62.741 68.373-109.952 134.912-109.952 76.053 0 137.685 61.675 137.685 137.728 0.021 68.757-50.432 125.589-116.288 135.872zM612.565 411.264c0 0-192.043-192.064-221.952-220.608s-83.349-47.552-121.408-11.307c-63.424 67.051 6.336 129.536 6.336 129.536l-43.627 44.224 0.149 0.149-57.984 58.005c0 0-103.296-85.163-71.573-225.6 0-0.043 0.021-0.064 0.021-0.107-58.219-16.064-101.035-69.269-101.035-132.608 0-76.053 61.675-137.728 137.728-137.728 64.939 0 119.211 45.013 133.76 105.515l0.085-0.021c0 0 113.92-39.808 208.149 56.235 94.251 96.043 231.040 234.667 231.040 234.667l-99.691 99.648z" />
<glyph unicode="&#xe97e;" glyph-name="dot-social-magento" d="M512.896 938.667l-442.667-256v-513.792l122.667-71.104-1.792 508.459 321.792 186.667 321.771-188.459v-506.667l119.125 74.667v510.229zM582.208 97.771l-70.208-35.563-59.563 35.563v510.229l-128-72.896v-513.771l187.563-106.667 192.875 106.667v512l-122.667 74.667z" />
</font>
</defs>
</svg>
